<?xml version="1.0" encoding="utf-8"?>
<!-- Generator: Adobe Illustrator 26.0.2, SVG Export Plug-In . SVG Version: 6.00 Build 0)  -->
<svg version="1.1" xmlns="http://www.w3.org/2000/svg" xmlns:xlink="http://www.w3.org/1999/xlink" x="0px" y="0px"
	 viewBox="0 0 339 115.33" style="enable-background:new 0 0 339 115.33;" xml:space="preserve">
<style type="text/css">
	.st0{display:none;}
	.st1{display:inline;opacity:0.4;}
	.st2{display:inline;}
	.st3{fill-rule:evenodd;clip-rule:evenodd;}
	.st4{fill-rule:evenodd;clip-rule:evenodd;fill:none;}
	.st5{display:inline;fill-rule:evenodd;clip-rule:evenodd;}
	.st6{display:inline;fill-rule:evenodd;clip-rule:evenodd;fill:none;}
	.st7{fill:#1D1D1B;}
	.st8{fill-rule:evenodd;clip-rule:evenodd;fill:#A69E89;}
	.st9{display:inline;fill-rule:evenodd;clip-rule:evenodd;fill:#A69E89;}
	.st10{fill:#FFFFFF;}
	.st11{fill:#F8AE15;}
	.st12{fill-rule:evenodd;clip-rule:evenodd;fill:#4C4532;}
	.st13{display:none;fill-rule:evenodd;clip-rule:evenodd;fill:#A69E89;}
	.st14{fill:#4C4532;}
</style>
<g id="Vrstva_1" class="st0">
	<text transform="matrix(1 0 0 1 589.3809 90.8745)"><tspan x="0" y="0" style="display:inline;fill:#292929; font-family:'JosefinSans-Light'; font-size:34.9025px;">exa</tspan><tspan x="58.46" y="0" style="display:inline;fill:#292929; font-family:'JosefinSans-Bold'; font-size:34.9025px;">timber</tspan></text>
	<text transform="matrix(1 0 0 1 551.9502 279.9844)" class="st2"><tspan x="0" y="0" style="fill:#292929; font-family:'JosefinSans-Bold'; font-size:38.1011px;">timber</tspan><tspan x="118.57" y="0" style="fill:#292929; font-family:'JosefinSans-Light'; font-size:38.1011px;">tool</tspan></text>
	<g class="st1">

			<text transform="matrix(1 0 0 1 628.9912 296.8145)" class="st7" style="font-family:'RobotoCondensed-Regular'; font-size:9.489px; letter-spacing:2;">timber examination tool</text>
	</g>
	<g class="st2">
		<path class="st3" d="M569.37,239.37c-3.4-2.84-6.28-5.47-9.38-7.8c-7.31-5.48-14.76-10.77-22.08-16.23
			c-1.59-1.19-3.18-0.75-4.74-0.49c-5.12,0.85-10.2,1.87-15.31,2.79c-0.71,0.13-1.67,0.36-2.15,0.03c-3.59-2.55-6.51-0.75-9.2,1.45
			c-4.68,3.83-10.02,6.27-15.7,8.11c-0.78,0.25-1.54,0.54-2.31,0.82c-6.14,2.2-6.11,2.21-7.08,8.55c-0.6,3.89-1.04,7.83-2.06,11.6
			c-0.59,2.2-2.1,4.18-3.35,6.16c-1.7,2.7-3.65,5.25-5.29,7.98c-0.54,0.89-0.77,2.21-0.59,3.24c1.56,8.88,3.23,17.75,4.93,26.61
			c0.19,0.98,0.62,2.02,1.24,2.78c4.46,5.46,8.98,10.87,13.54,16.24c0.64,0.75,1.54,1.42,2.46,1.76
			c10.43,3.86,20.88,7.67,31.35,11.41c1.04,0.37,2.33,0.46,3.41,0.24c6.1-1.28,12.17-2.66,18.23-4.1c0.76-0.18,1.58-0.82,2.03-1.48
			c1.22-1.77,2.45-3.57,3.33-5.52c1.52-3.34,4.14-5.24,7.36-6.67c2.64-1.17,5.12-2.74,7.79-3.83c4.52-1.84,5.52-6.05,7.4-10
			c-0.85-0.23-1.49-0.36-2.09-0.58c-2.23-0.79-3.64,0.06-4.46,2.17c-1.53,3.93-3.82,7.17-8.11,8.42
			c-7.02,2.06-10.74,7.79-14.84,13.14c-0.6,0.79-1.66,1.47-2.63,1.7c-2.81,0.67-5.68,1.08-8.53,1.59c-1.59,0.29-3.28,0.34-4.75,0.92
			c-4.21,1.65-7.57-0.58-11.13-2.08c-1.43-0.6-2.98-0.93-4.35-1.34c-0.48-0.41-0.92-0.97-1.49-1.23c-4.94-2.22-10.04-4.12-14.8-6.67
			c-2.58-1.38-4.75-3.69-6.78-5.88c-3.52-3.8-6.84-7.8-10.13-11.81c-0.75-0.91-1.34-2.16-1.5-3.33c-1.01-7.04-1.94-14.09-2.73-21.16
			c-0.15-1.3,0.18-2.81,0.75-4.01c1.96-4.07,4.29-7.97,6.14-12.08c1.14-2.54,1.71-5.35,2.4-8.08c0.73-2.87,1.42-5.76,1.9-8.68
			c0.4-2.47,1.8-3.61,4.08-4.23c3.58-0.96,7.24-1.79,10.61-3.27c3.14-1.38,6.01-3.41,8.85-5.38c1.78-1.23,3.4-1.87,5.54-1.08
			c2.66,0.98,5.3,0.65,8.02-0.2c3.67-1.15,7.47-1.86,11.16-2.94c1.59-0.47,2.66,0.03,3.82,0.95c8.49,6.74,17.04,13.42,25.49,20.21
			C565.27,239.43,566.89,239.59,569.37,239.37z"/>
		<path class="st3" d="M562.37,291.37c-3.58-1.36-4.02-1.4-5.64,1.42c-1.74,3.03-3.89,5.34-7.41,6.08
			c-5.17,1.08-8.33,4.86-11.47,8.61c-1.25,1.49-2.6,2.14-4.56,2.25c-3.85,0.21-7.68,0.78-11.52,1.09c-0.9,0.07-1.95-0.07-2.74-0.48
			c-6.84-3.58-13.65-7.21-20.43-10.9c-0.94-0.51-1.78-1.33-2.44-2.18c-3.39-4.41-6.72-8.86-10.03-13.33
			c-0.37-0.49-0.64-1.16-0.68-1.77c-0.22-3.63-0.34-7.27-0.52-10.9c-0.07-1.42-0.06-2.87-0.31-4.27c-0.7-3.84,0.92-6.97,3.21-9.7
			c4.2-5.01,5.55-11.21,7.37-17.17c0.88-2.89,2.08-4.47,5.23-4.91c5.77-0.8,11.23-2.68,16.09-6.04c0.55-0.38,1.55-0.76,2-0.51
			c3.68,1.97,7.48,1.3,11.06,0.21c5.36-1.63,9.67-1.01,13.25,3.7c1.59,2.1,3.88,3.67,5.8,5.52c1.14,1.1,2.35,1.37,3.94,0.59
			c-4.76-4.09-9.41-8.13-14.14-12.07c-0.59-0.49-1.62-0.69-2.43-0.63c-3.41,0.23-6.81,0.52-10.2,0.95
			c-2.68,0.34-5.28,0.64-7.83-0.67c-0.51-0.26-1.49-0.08-2.03,0.26c-6.58,4.05-13.78,6.46-21.23,8.28
			c-0.78,0.19-1.73,1.14-1.96,1.92c-1.12,3.91-1.85,7.94-3.09,11.81c-0.61,1.9-1.97,3.6-3.13,5.29c-1.14,1.64-2.42,3.2-3.72,4.72
			c-2.44,2.85-2.68,5.89-0.8,9.36c0.21,0.39-0.49,1.17-0.44,1.75c0.5,5.22,1.05,10.44,1.66,15.65c0.08,0.69,0.54,1.37,0.95,1.97
			c3.05,4.39,5.97,8.89,9.28,13.07c1.25,1.57,3.33,2.62,5.22,3.52c6.35,3.02,12.83,5.77,19.17,8.82c2.43,1.17,4.73,1.73,7.44,1.23
			c4.08-0.76,8.23-1.16,12.33-1.84c0.78-0.13,1.64-0.68,2.16-1.29c1.25-1.46,2.48-2.99,3.43-4.66c1.36-2.38,3.57-3.4,5.92-4.32
			c2.07-0.81,4.06-1.91,6.2-2.44C559.68,298.28,560.54,294.52,562.37,291.37z"/>
		<path class="st3" d="M550.08,288.92c-2.03-0.38-3.53-0.24-4.79,1.52c-0.7,0.98-2,1.85-3.18,2.12c-4.22,0.95-7.94,2.56-10.96,5.83
			c-0.81,0.88-2.4,1.22-3.69,1.42c-1.45,0.23-2.98-0.14-4.44,0.04c-3.73,0.48-6.72-0.89-9.61-3.1c-2.94-2.25-6.28-3.99-9.14-6.33
			c-1.99-1.63-3.53-3.83-5.12-5.89c-0.76-0.98-1.01-2.36-1.79-3.3c-3-3.59-2.97-7.7-2.33-11.96c0.08-0.51,0.17-1.04,0.12-1.55
			c-0.38-4.49,1.01-8.29,4.24-11.45c0.41-0.4,0.47-1.15,0.73-1.84c0.3-0.22,1-0.45,1.25-0.93c1.53-2.87,3.06-5.75,4.4-8.71
			c0.76-1.67,1.97-2.24,3.63-2.3c4.26-0.17,8.33-1.03,12.17-2.98c0.66-0.34,1.75-0.45,2.38-0.14c3.82,1.86,7.72,0.57,11.59,0.44
			c0.26-0.01,0.51-0.41,0.77-0.63c-0.35-0.28-0.69-0.77-1.06-0.79c-1.92-0.13-3.86-0.01-5.78-0.21c-2.09-0.22-4.15-0.73-6.23-1.04
			c-0.69-0.1-1.51-0.18-2.11,0.09c-4.9,2.23-9.99,3.7-15.39,3.98c-1.38,0.07-2.11,0.77-2.51,2.02c-0.65,2.04-1.47,4.04-1.98,6.12
			c-0.64,2.58-2.08,4.65-4.12,6.11c-3.72,2.66-4.97,6.13-4.43,10.54c0.22,1.81,0.31,3.71,0.04,5.5c-0.73,4.67,0.99,8.51,3.03,12.59
			c2.61,5.21,6.14,9.05,11.35,11.54c2.27,1.08,4.51,2.33,6.5,3.86c3.35,2.57,7.02,3.29,11.08,2.77c0.37-0.05,0.75-0.11,1.11-0.04
			c4.26,0.76,7.21-1.08,9.84-4.33c1.08-1.34,3.23-1.86,4.95-2.62c0.87-0.38,1.87-0.45,2.8-0.69
			C547.71,293.44,547.71,293.44,550.08,288.92z"/>
		<path class="st3" d="M537.95,276.2c1.55-0.99,2.32-2.81,2.28-4.43c-0.1-4.29,0.3-8.87-3.69-12.04c-0.69-0.55-1.27-1.27-1.77-2
			c-2-2.92-4.4-4.44-8.27-4.35c-2.58,0.06-5.1,0.98-7.4,0.79c-4.09-0.33-5.53,1.57-6.78,4.79c-0.59,1.53-1.78,2.98-3.04,4.08
			c-1.75,1.53-0.95,3.4-1.05,5.08c-0.21,3.82-0.6,7.76,2.17,10.98c0.68,0.79,1.51,1.62,2.45,1.99c4.33,1.72,8.72,3.28,13.09,4.89
			c0.41,0.15,0.99,0.5,1.23,0.35c3.48-2.17,7.94-3.02,9.92-7.21c0.26-0.54,0.13-1.26-0.31-1.91c-1.26,1.54-2.32,3.31-3.83,4.55
			c-1.46,1.2-3.34,1.9-5.09,2.69c-0.53,0.24-1.33,0.26-1.87,0.05c-4.27-1.68-8.64-3.19-12.7-5.3c-1.48-0.77-2.3-2.97-3.22-4.63
			c-0.52-0.94-0.97-2.16-0.84-3.17c0.33-2.57,0.71-5.21,1.65-7.59c0.9-2.29,2.46-4.35,3.86-6.41c0.46-0.68,1.26-1.3,2.04-1.56
			c1.88-0.63,3.82-1.22,5.78-1.46c1.69-0.21,3.45,0.28,5.15,0.13c2.16-0.19,3.95,0.04,5.05,2.18c0.23,0.44,0.71,0.75,1.07,1.13
			c5.27,5.74,5.41,5.84,5.31,13.57c-0.02,1.49-1.07,2.97-1.64,4.45C537.65,275.96,537.8,276.08,537.95,276.2z"/>
		<path class="st3" d="M506.11,250.06c-0.21,0.26-0.56,0.48-0.63,0.77c-0.91,3.94-4.11,6.2-6.55,9.02
			c-0.56,0.65-1.01,1.62-1.05,2.47c-0.19,3.77-0.26,7.55-0.28,11.33c0,0.86,0.23,1.78,0.59,2.56c1.03,2.17,2.24,4.24,3.27,6.41
			c1.18,2.5,7.34,7.12,10.5,7.3c-0.92-0.64-1.79-1.36-2.75-1.91c-3.81-2.21-6.55-5.3-8.25-9.41c-0.91-2.21-2.92-3.95-2.64-6.65
			c0.35-3.31,0.24-6.73,1.08-9.91c0.53-1.98,2.52-3.53,3.73-5.37c1.31-2,2.46-4.09,3.68-6.15
			C506.59,250.37,506.35,250.21,506.11,250.06z"/>
		<path class="st3" d="M528.7,278.4c-2.7,0.17-5.25,1.11-6.82,0.25c-2.5-1.38-4.45-3.87-6.44-6.05c-0.83-0.91,1.09-9.01,2.1-9.91
			c4.04-3.59,9.35-4.45,13.4-0.51c3.58,3.48,4,8.66,0.55,13.37c0.31,0.19,0.61,0.38,0.92,0.57c0.24-0.47,0.48-0.95,0.72-1.42
			c2.2-4.33,1.24-8.54-0.97-12.43c-0.69-1.21-2.57-2-4.06-2.45c-2.14-0.65-4.6-1.51-6.61-1.01c-2.06,0.5-3.85,2.41-5.53,3.96
			c-0.57,0.53-0.46,1.81-0.65,2.75c-0.34,1.74-0.48,3.54-1.05,5.2c-0.51,1.47-0.04,2.37,0.95,3.28c1.91,1.76,3.79,3.55,5.74,5.25
			c0.45,0.39,1.15,0.73,1.72,0.7c1.62-0.06,3.25-0.29,4.86-0.54C527.87,279.35,528.15,278.89,528.7,278.4z"/>
		<path class="st3" d="M541.75,283.26c-1.79,3.87-5.18,5.07-8.89,5.94c-1.19,0.28-2.27,1.27-3.28,2.1c-1.58,1.3-3.14,2.13-5.36,2.08
			c-4.12-0.08-8.24,0.28-11.63-2.9c0.81,1.93,4.46,4.15,6.5,4.23c1.18,0.05,2.38-0.05,3.56,0.06c3.41,0.33,6.17-0.25,8.44-3.39
			c1.05-1.45,3.65-1.91,5.64-2.53c2.29-0.71,4.59-1.26,5.72-3.67c0.22-0.47,0.12-1.09,0.17-1.65
			C542.33,283.45,542.04,283.35,541.75,283.26z"/>
		<path class="st3" d="M525.1,274.92c-3.05,0.26-5.99-2.97-6.24-6.56c-0.15-2.14,2.49-4.68,5.03-4.85c3.09-0.2,5.56,2.04,5.77,5.23
			C530.19,271.4,527.46,274.72,525.1,274.92z M519.88,268.1c-0.19,2.87,2.31,5.69,5.08,5.74c1.64,0.03,3.76-2.53,3.78-4.57
			c0.03-2.66-1.64-4.45-4.22-4.51C521.92,264.7,520.01,266.08,519.88,268.1z"/>
		<path class="st3" d="M516.08,286.58c-7.02-5.19-12.44-10.72-10.56-20C502.4,272.13,506.44,283.7,516.08,286.58z"/>
		<path class="st3" d="M532.34,244.29c-2.2-0.11-4.4-0.16-6.59-0.37c-1.07-0.1-2.1-0.56-3.16-0.76c-0.61-0.11-1.28-0.14-1.87,0
			c-4.01,0.93-7.99,2.05-12.03,2.82c-2.06,0.39-2.15,1.84-2.29,3.59c0.46-0.43,1.16-0.77,1.33-1.29c0.52-1.58,1.63-1.72,3.06-1.95
			c3.25-0.52,6.46-1.36,9.69-2.06c0.7-0.15,1.62-0.61,2.08-0.33C525.71,245.89,529.04,244.32,532.34,244.29z"/>
		<path class="st3" d="M511.05,257.82c1.04-5.32,4.33-7.01,9.19-6.69c1.39,0.09,2.85-0.9,4.17-1.68c-3.68,0.61-7.35,1.2-11.02,1.85
			c-0.31,0.05-0.68,0.37-0.81,0.66c-0.8,1.79-1.54,3.6-2.3,5.41C510.53,257.52,510.79,257.67,511.05,257.82z"/>
		<path class="st3" d="M495.18,291.42c2.81,4.67,7.12,7.94,12.07,9.32C503.47,297.82,499.21,294.53,495.18,291.42z"/>
		<path class="st3" d="M540.23,280.5c-2.59,2.59-4.49,5.5-8.33,5.34C535.97,286.58,540.2,284.02,540.23,280.5z"/>
		<path class="st3" d="M546.65,240.61c-2.33-2.06-4.66-4.13-6.99-6.19c1.61,2.86,3.55,5.35,6.45,6.78
			C546.29,241,546.47,240.8,546.65,240.61z"/>
		<path class="st3" d="M505.47,266.24c0.44-1.32,0.69-2.75,1.39-3.93c0.77-1.31,1.95-2.38,3.06-3.69c-3.27,1.16-4.88,3.6-4.99,7.36
			C505.12,266.07,505.29,266.15,505.47,266.24z"/>
		<path class="st3" d="M542.92,267.01c0,3.07,0,6.13,0,9.07C544.17,275.19,544.48,270.03,542.92,267.01z"/>
		<path class="st3" d="M528.94,287.92c-3.4,2.69-7.04,0.43-10.41,0.85C520.54,290.65,527.5,290.28,528.94,287.92z"/>
		<path class="st3" d="M537.84,238.56c0.02,2.55,2.47,5.04,4.22,4.56C540.72,241.67,539.46,240.31,537.84,238.56z"/>
		<path class="st3" d="M546.13,276.7c1.86-1.18,2.16-4.07,0.79-5.83C546.67,272.76,546.42,274.57,546.13,276.7z"/>
		<path class="st4" d="M524.51,264.76c-2.59-0.06-4.5,1.32-4.63,3.34c-0.19,2.87,2.31,5.69,5.08,5.74c1.64,0.03,3.76-2.53,3.78-4.57
			C528.77,266.61,527.09,264.82,524.51,264.76z"/>
	</g>
	<g>
		<path class="st5" d="M605.44,54.46c-3.12-2.6-5.75-5.01-8.59-7.14c-6.69-5.02-13.52-9.87-20.22-14.87
			c-1.46-1.09-2.92-0.69-4.34-0.45c-4.69,0.78-9.35,1.71-14.02,2.55c-0.65,0.12-1.53,0.33-1.97,0.02c-3.29-2.34-5.96-0.69-8.43,1.33
			c-4.29,3.51-9.18,5.74-14.38,7.43c-0.71,0.23-1.41,0.5-2.11,0.75c-5.62,2.01-5.59,2.02-6.49,7.83c-0.55,3.56-0.95,7.17-1.88,10.63
			c-0.54,2.01-1.93,3.83-3.07,5.64c-1.56,2.47-3.34,4.8-4.84,7.31c-0.49,0.82-0.7,2.03-0.54,2.97c1.43,8.14,2.96,16.26,4.52,24.37
			c0.17,0.89,0.57,1.85,1.14,2.54c4.09,5,8.23,9.96,12.41,14.88c0.58,0.69,1.41,1.3,2.25,1.61c9.56,3.53,19.13,7.02,28.72,10.45
			c0.95,0.34,2.13,0.42,3.12,0.22c5.58-1.17,11.15-2.43,16.7-3.76c0.7-0.17,1.44-0.75,1.86-1.35c1.12-1.62,2.24-3.27,3.05-5.05
			c1.39-3.06,3.8-4.8,6.74-6.11c2.42-1.07,4.69-2.51,7.13-3.5c4.14-1.69,5.06-5.54,6.78-9.16c-0.78-0.21-1.36-0.33-1.91-0.53
			c-2.05-0.72-3.33,0.05-4.09,1.99c-1.4,3.6-3.5,6.56-7.43,7.71c-6.43,1.88-9.84,7.13-13.6,12.03c-0.55,0.72-1.52,1.35-2.4,1.56
			c-2.57,0.61-5.2,0.99-7.81,1.46c-1.46,0.26-3,0.31-4.35,0.84c-3.86,1.51-6.93-0.53-10.2-1.91c-1.31-0.55-2.73-0.85-3.98-1.22
			c-0.44-0.37-0.84-0.89-1.36-1.13c-4.52-2.03-9.2-3.77-13.56-6.11c-2.36-1.27-4.35-3.38-6.21-5.39c-3.23-3.48-6.27-7.15-9.28-10.82
			c-0.69-0.84-1.22-1.98-1.38-3.05c-0.92-6.45-1.77-12.91-2.5-19.38c-0.13-1.19,0.17-2.58,0.69-3.67c1.79-3.73,3.93-7.3,5.62-11.07
			c1.04-2.33,1.57-4.9,2.2-7.4c0.67-2.63,1.3-5.27,1.74-7.95c0.37-2.26,1.65-3.31,3.74-3.87c3.28-0.88,6.63-1.64,9.72-2.99
			c2.87-1.26,5.51-3.12,8.11-4.92c1.62-1.13,3.12-1.71,5.07-0.99c2.44,0.89,4.86,0.6,7.35-0.18c3.36-1.05,6.84-1.7,10.22-2.69
			c1.45-0.43,2.44,0.03,3.5,0.87c7.78,6.18,15.6,12.29,23.34,18.51C601.68,54.52,603.16,54.67,605.44,54.46z"/>
		<path class="st5" d="M599.02,102.09c-3.28-1.25-3.68-1.28-5.17,1.3c-1.59,2.77-3.56,4.89-6.78,5.57
			c-4.74,0.99-7.63,4.46-10.51,7.89c-1.14,1.36-2.38,1.96-4.17,2.06c-3.53,0.19-7.03,0.71-10.55,1c-0.83,0.07-1.79-0.06-2.51-0.44
			c-6.27-3.28-12.5-6.61-18.71-9.99c-0.86-0.47-1.63-1.22-2.23-2c-3.1-4.04-6.15-8.12-9.18-12.21c-0.33-0.45-0.59-1.07-0.62-1.62
			c-0.2-3.33-0.31-6.66-0.47-9.98c-0.06-1.31-0.05-2.63-0.28-3.91c-0.64-3.52,0.84-6.38,2.94-8.88c3.85-4.59,5.09-10.27,6.75-15.73
			c0.81-2.65,1.9-4.1,4.79-4.5c5.29-0.73,10.28-2.45,14.74-5.53c0.5-0.35,1.42-0.69,1.84-0.47c3.37,1.81,6.86,1.19,10.13,0.2
			c4.91-1.49,8.86-0.93,12.13,3.39c1.46,1.92,3.55,3.36,5.31,5.06c1.05,1.01,2.15,1.25,3.61,0.54c-4.37-3.75-8.62-7.45-12.95-11.06
			c-0.54-0.45-1.49-0.63-2.22-0.58c-3.12,0.21-6.24,0.48-9.34,0.87c-2.46,0.31-4.84,0.58-7.18-0.61c-0.47-0.24-1.36-0.07-1.86,0.24
			c-6.03,3.71-12.62,5.91-19.45,7.59c-0.72,0.18-1.59,1.04-1.8,1.76c-1.03,3.58-1.69,7.27-2.83,10.81c-0.56,1.74-1.8,3.3-2.87,4.84
			c-1.04,1.51-2.21,2.93-3.4,4.32c-2.24,2.61-2.46,5.39-0.74,8.58c0.19,0.35-0.45,1.08-0.4,1.6c0.46,4.78,0.96,9.56,1.52,14.34
			c0.07,0.63,0.49,1.26,0.87,1.8c2.79,4.02,5.46,8.14,8.5,11.97c1.14,1.44,3.05,2.4,4.78,3.23c5.82,2.77,11.75,5.29,17.56,8.08
			c2.23,1.07,4.33,1.59,6.81,1.13c3.74-0.7,7.54-1.06,11.29-1.68c0.71-0.12,1.5-0.62,1.98-1.18c1.15-1.34,2.27-2.74,3.14-4.27
			c1.24-2.18,3.27-3.11,5.43-3.96c1.9-0.74,3.72-1.75,5.68-2.24C596.55,108.42,597.35,104.98,599.02,102.09z"/>
		<path class="st5" d="M587.77,99.85c-1.86-0.35-3.23-0.22-4.38,1.39c-0.64,0.9-1.83,1.69-2.91,1.94
			c-3.86,0.87-7.28,2.35-10.04,5.34c-0.74,0.8-2.2,1.11-3.38,1.3c-1.33,0.21-2.73-0.13-4.07,0.04c-3.41,0.44-6.16-0.82-8.8-2.84
			c-2.69-2.06-5.75-3.65-8.37-5.8c-1.82-1.49-3.23-3.51-4.69-5.39c-0.69-0.89-0.92-2.16-1.64-3.02c-2.75-3.29-2.72-7.05-2.13-10.96
			c0.07-0.47,0.15-0.95,0.11-1.42c-0.35-4.11,0.93-7.59,3.88-10.49c0.37-0.36,0.43-1.05,0.67-1.69c0.28-0.2,0.92-0.42,1.15-0.85
			c1.4-2.63,2.8-5.27,4.03-7.98c0.7-1.53,1.8-2.05,3.33-2.11c3.9-0.15,7.63-0.95,11.14-2.73c0.61-0.31,1.6-0.41,2.19-0.12
			c3.5,1.71,7.07,0.52,10.61,0.4c0.24-0.01,0.47-0.38,0.7-0.58c-0.32-0.25-0.63-0.7-0.97-0.72c-1.76-0.11-3.54-0.01-5.29-0.19
			c-1.91-0.2-3.8-0.67-5.71-0.95c-0.63-0.09-1.39-0.16-1.94,0.09c-4.49,2.04-9.15,3.39-14.1,3.64c-1.26,0.07-1.93,0.7-2.29,1.85
			c-0.59,1.87-1.35,3.7-1.81,5.61c-0.58,2.37-1.91,4.26-3.78,5.6c-3.41,2.44-4.55,5.62-4.06,9.65c0.2,1.66,0.29,3.4,0.03,5.04
			c-0.66,4.28,0.91,7.79,2.78,11.53c2.39,4.77,5.62,8.29,10.4,10.57c2.08,0.99,4.13,2.14,5.95,3.53c3.07,2.35,6.43,3.02,10.15,2.54
			c0.34-0.04,0.69-0.1,1.02-0.04c3.91,0.7,6.6-0.99,9.01-3.97c0.99-1.23,2.96-1.71,4.53-2.4c0.79-0.35,1.71-0.41,2.57-0.64
			C585.59,103.99,585.59,103.98,587.77,99.85z"/>
		<path class="st5" d="M576.65,88.2c1.42-0.91,2.13-2.58,2.09-4.06c-0.1-3.93,0.28-8.12-3.38-11.02c-0.63-0.5-1.16-1.16-1.62-1.83
			c-1.83-2.67-4.03-4.07-7.57-3.99c-2.36,0.05-4.67,0.9-6.77,0.73c-3.75-0.3-5.07,1.44-6.21,4.39c-0.54,1.41-1.63,2.73-2.79,3.74
			c-1.6,1.4-0.87,3.11-0.96,4.66c-0.2,3.5-0.55,7.11,1.99,10.06c0.62,0.72,1.38,1.48,2.24,1.82c3.97,1.57,7.99,3,11.99,4.48
			c0.38,0.14,0.91,0.46,1.13,0.32c3.19-1.99,7.27-2.77,9.09-6.6c0.23-0.5,0.12-1.16-0.29-1.75c-1.15,1.41-2.13,3.03-3.51,4.17
			c-1.33,1.09-3.06,1.74-4.66,2.46c-0.48,0.22-1.21,0.24-1.71,0.04c-3.92-1.54-7.92-2.92-11.63-4.86c-1.36-0.71-2.11-2.72-2.95-4.24
			c-0.48-0.86-0.89-1.98-0.77-2.91c0.31-2.35,0.65-4.77,1.51-6.95c0.82-2.1,2.25-3.98,3.54-5.88c0.42-0.62,1.16-1.19,1.87-1.43
			c1.72-0.58,3.5-1.12,5.29-1.34c1.54-0.19,3.16,0.25,4.72,0.12c1.98-0.17,3.62,0.04,4.63,2c0.21,0.41,0.65,0.69,0.98,1.04
			c4.83,5.26,4.95,5.35,4.86,12.43c-0.02,1.36-0.98,2.72-1.5,4.08C576.38,87.98,576.51,88.09,576.65,88.2z"/>
		<path class="st5" d="M547.5,64.25c-0.2,0.23-0.52,0.44-0.58,0.71c-0.84,3.61-3.76,5.68-6,8.26c-0.52,0.6-0.92,1.48-0.96,2.26
			c-0.18,3.46-0.24,6.92-0.25,10.38c0,0.78,0.21,1.63,0.54,2.34c0.94,1.99,2.05,3.89,2.99,5.87c1.08,2.29,6.73,6.52,9.62,6.68
			c-0.84-0.59-1.64-1.24-2.52-1.75c-3.49-2.02-6-4.86-7.55-8.61c-0.84-2.02-2.68-3.61-2.42-6.09c0.32-3.03,0.22-6.17,0.99-9.07
			c0.48-1.81,2.31-3.24,3.41-4.92c1.2-1.83,2.26-3.75,3.38-5.63C547.93,64.53,547.71,64.39,547.5,64.25z"/>
		<path class="st5" d="M568.18,90.21c-2.47,0.15-4.81,1.02-6.24,0.23c-2.3-1.26-4.07-3.54-5.9-5.55c-0.76-0.83,1-8.25,1.92-9.07
			c3.7-3.28,8.56-4.08,12.28-0.47c3.28,3.19,3.66,7.93,0.5,12.25c0.28,0.17,0.56,0.35,0.84,0.52c0.22-0.43,0.44-0.87,0.66-1.3
			c2.02-3.97,1.14-7.82-0.88-11.38c-0.63-1.11-2.35-1.83-3.72-2.25c-1.96-0.6-4.21-1.38-6.06-0.93c-1.88,0.46-3.52,2.21-5.06,3.62
			c-0.52,0.48-0.42,1.65-0.59,2.52c-0.31,1.59-0.44,3.24-0.96,4.76c-0.47,1.35-0.03,2.17,0.87,3c1.75,1.61,3.47,3.25,5.26,4.81
			c0.41,0.36,1.06,0.67,1.58,0.65c1.49-0.06,2.98-0.26,4.45-0.5C567.43,91.08,567.68,90.66,568.18,90.21z"/>
		<path class="st5" d="M580.14,94.66c-1.64,3.54-4.74,4.65-8.14,5.44c-1.09,0.26-2.08,1.17-3,1.92c-1.44,1.19-2.87,1.95-4.91,1.91
			c-3.77-0.07-7.55,0.25-10.66-2.66c0.74,1.77,4.08,3.8,5.95,3.88c1.09,0.04,2.18-0.05,3.26,0.05c3.12,0.3,5.65-0.23,7.73-3.1
			c0.96-1.33,3.34-1.75,5.17-2.31c2.1-0.65,4.21-1.16,5.24-3.36c0.2-0.43,0.11-1,0.16-1.51C580.67,94.83,580.4,94.75,580.14,94.66z"
			/>
		<path class="st5" d="M564.88,87.02c-2.8,0.23-5.49-2.72-5.71-6.01c-0.13-1.96,2.28-4.28,4.61-4.44c2.83-0.19,5.09,1.87,5.28,4.79
			C569.55,83.8,567.05,86.84,564.88,87.02z M560.1,80.78c-0.17,2.63,2.11,5.21,4.65,5.26c1.5,0.03,3.44-2.32,3.46-4.19
			c0.03-2.44-1.51-4.08-3.87-4.14C561.98,77.66,560.22,78.92,560.1,80.78z"/>
		<path class="st5" d="M556.63,97.71c-6.43-4.75-11.4-9.82-9.67-18.32C544.09,84.47,547.79,95.06,556.63,97.71z"/>
		<path class="st5" d="M571.52,58.97c-2.01-0.1-4.03-0.15-6.04-0.34c-0.98-0.09-1.92-0.51-2.89-0.69c-0.55-0.1-1.17-0.13-1.71,0
			c-3.67,0.85-7.32,1.88-11.02,2.58c-1.89,0.36-1.96,1.69-2.09,3.28c0.42-0.39,1.06-0.71,1.21-1.18c0.47-1.44,1.5-1.57,2.8-1.78
			c2.98-0.48,5.92-1.25,8.87-1.89c0.64-0.14,1.49-0.56,1.9-0.3C565.45,60.44,568.5,58.99,571.52,58.97z"/>
		<path class="st5" d="M552.01,71.36c0.95-4.87,3.97-6.42,8.42-6.13c1.27,0.08,2.61-0.83,3.81-1.53c-3.37,0.56-6.73,1.1-10.09,1.69
			c-0.28,0.05-0.63,0.34-0.75,0.61c-0.73,1.64-1.41,3.3-2.1,4.95C551.54,71.09,551.78,71.22,552.01,71.36z"/>
		<path class="st5" d="M537.48,102.13c2.58,4.27,6.52,7.27,11.06,8.54C545.07,108,541.17,104.98,537.48,102.13z"/>
		<path class="st5" d="M578.74,92.13c-2.37,2.37-4.11,5.04-7.63,4.89C574.84,97.7,578.72,95.36,578.74,92.13z"/>
		<path class="st5" d="M584.62,55.59c-2.13-1.89-4.27-3.78-6.4-5.67c1.47,2.62,3.25,4.9,5.91,6.21
			C584.3,55.96,584.46,55.77,584.62,55.59z"/>
		<path class="st5" d="M546.91,79.07c0.41-1.21,0.64-2.52,1.27-3.6c0.71-1.2,1.79-2.18,2.81-3.38c-3,1.06-4.47,3.3-4.57,6.74
			C546.58,78.91,546.74,78.99,546.91,79.07z"/>
		<path class="st5" d="M581.21,79.78c0,2.81,0,5.61,0,8.31C582.36,87.27,582.63,82.54,581.21,79.78z"/>
		<path class="st5" d="M568.4,98.93c-3.11,2.47-6.45,0.39-9.53,0.78C560.71,101.44,567.09,101.1,568.4,98.93z"/>
		<path class="st5" d="M576.55,53.72c0.02,2.34,2.26,4.61,3.87,4.17C579.19,56.57,578.04,55.32,576.55,53.72z"/>
		<path class="st5" d="M584.15,88.65c1.7-1.08,1.98-3.73,0.72-5.34C584.64,85.05,584.42,86.7,584.15,88.65z"/>
		<path class="st6" d="M564.35,77.72c-2.37-0.06-4.13,1.21-4.25,3.06c-0.17,2.63,2.11,5.21,4.65,5.26c1.5,0.03,3.44-2.32,3.46-4.19
			C568.25,79.41,566.71,77.77,564.35,77.72z"/>
	</g>
	<g class="st1">
		<g>
			<g>
				<path class="st7" d="M799.68,242.21c0.01-0.02,0.01-0.04,0.01-0.06c0-0.04-0.02-0.07-0.05-0.1c-0.04-0.03-0.11-0.04-0.2-0.04
					h-0.15v0.28h0.14c0.04,0,0.09,0,0.12-0.01c0.03-0.01,0.06-0.02,0.08-0.03C799.66,242.24,799.67,242.22,799.68,242.21"/>
				<path class="st7" d="M799.48,241.47c-0.49,0-0.88,0.4-0.88,0.88c0,0.49,0.4,0.88,0.88,0.88c0.49,0,0.88-0.4,0.88-0.88
					C800.37,241.87,799.97,241.47,799.48,241.47 M799.86,242.85c-0.02,0-0.03,0-0.04-0.01c-0.01,0-0.02-0.01-0.03-0.02l-0.35-0.36
					c-0.01-0.01-0.02-0.01-0.04-0.01h-0.09v0.4h-0.18v-0.98h0.33c0.14,0,0.24,0.02,0.31,0.07c0.08,0.05,0.12,0.12,0.12,0.22
					c0,0.04-0.01,0.08-0.03,0.12c-0.02,0.03-0.04,0.06-0.08,0.09c-0.03,0.02-0.07,0.04-0.11,0.06c-0.01,0-0.02,0.01-0.04,0.01
					l0.42,0.43H799.86z"/>
				<path class="st7" d="M796.29,234.43c-0.29,0-0.53,0.25-0.53,0.55v7.7c0,0.31,0.24,0.55,0.53,0.55h1.42v-8.81H796.29z"/>
				<path class="st7" d="M792.17,237.04c0.43,0,0.83,0.06,1.19,0.19c0.36,0.13,0.67,0.31,0.93,0.55c0.26,0.24,0.46,0.53,0.61,0.88
					c0.14,0.35,0.22,0.74,0.22,1.18c0,0.14-0.01,0.25-0.02,0.34c-0.01,0.09-0.04,0.15-0.07,0.21c-0.03,0.05-0.08,0.09-0.13,0.11
					c-0.06,0.02-0.13,0.03-0.22,0.03h-3.77c0.06,0.51,0.23,0.88,0.5,1.11c0.27,0.23,0.62,0.34,1.04,0.34c0.23,0,0.42-0.03,0.59-0.08
					c0.17-0.05,0.31-0.11,0.44-0.17c0.13-0.06,0.25-0.12,0.35-0.17c0.11-0.05,0.22-0.08,0.34-0.08c0.16,0,0.27,0.05,0.35,0.16
					l0.57,0.65c-0.2,0.22-0.42,0.39-0.65,0.53c-0.23,0.14-0.47,0.24-0.72,0.32c-0.25,0.08-0.49,0.13-0.74,0.16
					c-0.25,0.03-0.48,0.04-0.7,0.04c-0.46,0-0.89-0.07-1.29-0.21c-0.4-0.14-0.75-0.35-1.05-0.62c-0.3-0.27-0.54-0.62-0.71-1.02
					c-0.17-0.41-0.26-0.88-0.26-1.42c0-0.41,0.08-0.79,0.22-1.16c0.15-0.36,0.36-0.68,0.64-0.96c0.28-0.27,0.62-0.49,1.02-0.65
					C791.22,237.12,791.67,237.04,792.17,237.04 M792.21,238.3c-0.38,0-0.67,0.1-0.88,0.3c-0.21,0.2-0.35,0.48-0.42,0.86h2.44
					c0-0.15-0.02-0.29-0.06-0.42c-0.04-0.14-0.1-0.26-0.2-0.37c-0.09-0.11-0.21-0.2-0.36-0.26
					C792.59,238.33,792.41,238.3,792.21,238.3"/>
				<path class="st7" d="M786.78,243.24H785l-2.54-6.1h1.63c0.14,0,0.25,0.03,0.35,0.09c0.09,0.06,0.16,0.14,0.19,0.23l0.91,2.74
					c0.07,0.22,0.14,0.44,0.2,0.65c0.06,0.21,0.12,0.42,0.17,0.64c0.05-0.21,0.1-0.42,0.17-0.64c0.07-0.21,0.14-0.43,0.21-0.65
					l0.95-2.74c0.03-0.09,0.1-0.17,0.19-0.23c0.09-0.06,0.2-0.09,0.33-0.09h1.55L786.78,243.24z"/>
				<path class="st7" d="M779.82,237.04c0.43,0,0.83,0.06,1.19,0.19c0.36,0.13,0.67,0.31,0.93,0.55c0.26,0.24,0.46,0.53,0.61,0.88
					c0.15,0.35,0.22,0.74,0.22,1.18c0,0.14-0.01,0.25-0.02,0.34c-0.01,0.09-0.04,0.15-0.07,0.21c-0.04,0.05-0.08,0.09-0.14,0.11
					c-0.06,0.02-0.13,0.03-0.22,0.03h-3.77c0.06,0.51,0.23,0.88,0.5,1.11c0.27,0.23,0.62,0.34,1.04,0.34c0.23,0,0.42-0.03,0.59-0.08
					c0.16-0.05,0.31-0.11,0.44-0.17c0.13-0.06,0.25-0.12,0.35-0.17c0.11-0.05,0.22-0.08,0.34-0.08c0.16,0,0.27,0.05,0.35,0.16
					l0.57,0.65c-0.2,0.22-0.42,0.39-0.65,0.53c-0.23,0.14-0.47,0.24-0.72,0.32c-0.25,0.08-0.49,0.13-0.74,0.16
					c-0.25,0.03-0.48,0.04-0.7,0.04c-0.46,0-0.89-0.07-1.29-0.21c-0.4-0.14-0.75-0.35-1.05-0.62s-0.54-0.62-0.71-1.02
					c-0.17-0.41-0.26-0.88-0.26-1.42c0-0.41,0.07-0.79,0.22-1.16c0.15-0.36,0.36-0.68,0.64-0.96c0.28-0.27,0.62-0.49,1.02-0.65
					C778.87,237.12,779.32,237.04,779.82,237.04 M779.86,238.3c-0.38,0-0.67,0.1-0.88,0.3c-0.21,0.2-0.35,0.48-0.42,0.86h2.44
					c0-0.15-0.02-0.29-0.06-0.42c-0.04-0.14-0.11-0.26-0.2-0.37c-0.09-0.11-0.21-0.2-0.36-0.26
					C780.25,238.33,780.07,238.3,779.86,238.3"/>
				<path class="st7" d="M774.58,234.43c-0.29,0-0.53,0.25-0.53,0.55c0,0.01,0,2.54,0,2.54c-0.19-0.15-0.4-0.27-0.63-0.36
					c-0.23-0.09-0.52-0.14-0.86-0.14c-0.42,0-0.8,0.08-1.14,0.24c-0.35,0.16-0.64,0.38-0.89,0.67c-0.25,0.29-0.44,0.62-0.57,1.01
					c-0.13,0.39-0.2,0.81-0.2,1.27c0,0.49,0.06,0.93,0.18,1.32c0.12,0.39,0.29,0.71,0.5,0.98c0.21,0.27,0.46,0.47,0.75,0.61
					c0.29,0.14,0.61,0.21,0.95,0.21c0.22,0,0.43-0.02,0.62-0.06c0.19-0.04,0.37-0.1,0.54-0.18c0.17-0.08,0.32-0.17,0.46-0.27
					c0.14-0.11,0.28-0.22,0.41-0.35l0.15,0.46c0.03,0.1,0.09,0.18,0.17,0.23c0.08,0.05,0.18,0.08,0.31,0.08H776v-8.81H774.58z
					 M774.04,241.36c-0.08,0.09-0.17,0.18-0.26,0.25c-0.09,0.07-0.18,0.13-0.27,0.18c-0.1,0.05-0.2,0.08-0.32,0.11
					c-0.12,0.03-0.25,0.04-0.39,0.04c-0.16,0-0.3-0.03-0.42-0.09c-0.13-0.06-0.24-0.16-0.33-0.29c-0.09-0.14-0.16-0.31-0.21-0.53
					c-0.05-0.22-0.08-0.49-0.08-0.81c0-0.33,0.03-0.62,0.09-0.85c0.06-0.24,0.15-0.43,0.26-0.57c0.11-0.15,0.24-0.25,0.39-0.32
					c0.15-0.07,0.32-0.1,0.5-0.1c0.19,0,0.37,0.03,0.54,0.09c0.17,0.06,0.33,0.17,0.48,0.32V241.36z"/>
				<path class="st7" d="M769.19,238.82c-0.12-0.39-0.29-0.71-0.5-0.97c-0.21-0.27-0.46-0.47-0.75-0.6
					c-0.29-0.14-0.61-0.21-0.95-0.21c-0.42,0-0.78,0.07-1.09,0.2c-0.31,0.14-0.59,0.32-0.83,0.54v-2.8h0c0-0.31-0.24-0.55-0.54-0.55
					h-1.42v8.81h1.3c0.13,0,0.23-0.02,0.31-0.07c0.08-0.05,0.13-0.13,0.16-0.26l0.07-0.31c0.1,0.11,0.2,0.2,0.31,0.29
					c0.11,0.09,0.23,0.17,0.35,0.23c0.13,0.06,0.27,0.11,0.42,0.15c0.15,0.04,0.33,0.05,0.52,0.05c0.42,0,0.8-0.08,1.14-0.24
					c0.34-0.16,0.64-0.38,0.88-0.67c0.25-0.29,0.44-0.62,0.57-1.01c0.14-0.39,0.21-0.81,0.21-1.27
					C769.37,239.64,769.31,239.21,769.19,238.82 M767.26,240.99c-0.06,0.24-0.15,0.43-0.26,0.57c-0.11,0.15-0.24,0.25-0.39,0.32
					c-0.15,0.07-0.32,0.1-0.5,0.1c-0.19,0-0.37-0.03-0.54-0.09c-0.17-0.06-0.33-0.17-0.48-0.32v-2.59c0.09-0.09,0.17-0.18,0.25-0.25
					c0.08-0.07,0.18-0.13,0.28-0.18c0.1-0.05,0.21-0.08,0.32-0.11c0.12-0.03,0.25-0.04,0.39-0.04c0.16,0,0.3,0.03,0.42,0.09
					c0.13,0.06,0.24,0.16,0.33,0.29c0.09,0.14,0.16,0.31,0.21,0.53c0.05,0.22,0.08,0.49,0.08,0.81
					C767.35,240.47,767.32,240.76,767.26,240.99"/>
				<path class="st7" d="M759.55,237.04c0.43,0,0.83,0.06,1.19,0.19c0.36,0.13,0.67,0.31,0.93,0.55c0.26,0.24,0.46,0.53,0.6,0.88
					c0.15,0.35,0.22,0.74,0.22,1.18c0,0.14-0.01,0.25-0.02,0.34c-0.01,0.09-0.04,0.15-0.07,0.21c-0.03,0.05-0.08,0.09-0.13,0.11
					c-0.06,0.02-0.13,0.03-0.22,0.03h-3.77c0.06,0.51,0.23,0.88,0.5,1.11c0.27,0.23,0.62,0.34,1.04,0.34c0.23,0,0.42-0.03,0.59-0.08
					c0.16-0.05,0.31-0.11,0.44-0.17c0.13-0.06,0.25-0.12,0.35-0.17c0.11-0.05,0.22-0.08,0.34-0.08c0.16,0,0.27,0.05,0.35,0.16
					l0.57,0.65c-0.2,0.22-0.42,0.39-0.65,0.53c-0.23,0.14-0.47,0.24-0.72,0.32c-0.25,0.08-0.49,0.13-0.74,0.16
					c-0.25,0.03-0.48,0.04-0.7,0.04c-0.46,0-0.89-0.07-1.29-0.21c-0.4-0.14-0.75-0.35-1.05-0.62c-0.3-0.27-0.54-0.62-0.71-1.02
					c-0.17-0.41-0.26-0.88-0.26-1.42c0-0.41,0.07-0.79,0.22-1.16c0.15-0.36,0.36-0.68,0.64-0.96c0.28-0.27,0.62-0.49,1.02-0.65
					C758.6,237.12,759.05,237.04,759.55,237.04 M759.59,238.3c-0.38,0-0.67,0.1-0.88,0.3c-0.21,0.2-0.35,0.48-0.42,0.86h2.44
					c0-0.15-0.02-0.29-0.06-0.42c-0.04-0.14-0.11-0.26-0.2-0.37c-0.09-0.11-0.21-0.2-0.36-0.26
					C759.98,238.33,759.8,238.3,759.59,238.3"/>
				<path class="st7" d="M746.39,237.13h1.57c0.14,0,0.26,0.03,0.36,0.09c0.1,0.06,0.16,0.14,0.18,0.23l0.66,2.74
					c0.05,0.21,0.1,0.41,0.14,0.61c0.04,0.2,0.08,0.39,0.11,0.58c0.06-0.19,0.12-0.39,0.19-0.58c0.07-0.19,0.13-0.4,0.19-0.61
					l0.82-2.74c0.03-0.09,0.09-0.17,0.18-0.23c0.1-0.06,0.21-0.09,0.33-0.09H752c0.14,0,0.26,0.03,0.36,0.09
					c0.1,0.06,0.16,0.14,0.19,0.23l0.78,2.74c0.06,0.21,0.12,0.41,0.18,0.61c0.06,0.2,0.12,0.39,0.17,0.59
					c0.03-0.2,0.08-0.39,0.12-0.59c0.05-0.19,0.1-0.4,0.16-0.61l0.69-2.74c0.02-0.09,0.08-0.17,0.18-0.23
					c0.1-0.06,0.21-0.09,0.34-0.09h1.49l-2.03,6.1h-1.59c-0.08,0-0.16-0.02-0.21-0.07c-0.06-0.05-0.1-0.13-0.14-0.24l-0.93-3.04
					c-0.04-0.14-0.08-0.27-0.12-0.41c-0.04-0.13-0.07-0.27-0.1-0.4c-0.03,0.14-0.06,0.27-0.1,0.41c-0.04,0.14-0.08,0.27-0.12,0.41
					l-0.95,3.03c-0.06,0.2-0.2,0.31-0.42,0.31h-1.51L746.39,237.13z"/>
			</g>
		</g>
	</g>
	<path class="st8" d="M524.63,414.63c-2.59-0.06-4.5,1.32-4.63,3.34c-0.19,2.87,2.31,5.69,5.08,5.74c1.64,0.03,3.76-2.53,3.78-4.57
		C528.89,416.49,527.21,414.7,524.63,414.63z"/>
</g>
<g id="Vrstva_2" class="st0">
	<path class="st9" d="M454.06,133.58c1.14-5.2,2.59-10.35,3.33-15.6c0.74-5.23,3.63-8.77,7.45-11.94c3.87-3.2,7.7-6.46,11.4-9.86
		c1.43-1.31,2.83-1.58,4.62-1.33c2.7,0.37,5.42,0.6,8.13,0.86c0.67,0.07,1.51,0.3,2.01,0.01c2.7-1.55,4.72,0.05,7.04,1.06
		c3.95,1.72,8.04,3.18,12.17,4.43c1.87,0.56,2.91,1.35,3.21,3.27c0.27,1.76,0.88,3.47,1.11,5.23c0.59,4.54,4.03,7.34,6.34,10.85
		c0.76,1.16,1.33,2.77,1.24,4.12c-0.34,4.9-0.93,9.79-1.61,14.65c-0.19,1.37-0.86,2.72-1.52,3.96c-4.09,7.6-9.99,13.04-18.4,15.66
		c-2.9,0.9-5.47,2.95-8.39,3.64c-2.59,0.61-5.46,0.06-8.21,0.01c-0.25-0.01-0.51-0.16-0.75-0.14c-4.68,0.27-7.66-2.05-10.02-5.93
		c-0.84-1.38-2.83-2.28-4.48-2.88c-4.23-1.55-8.23-3.19-9.87-7.93c-0.33-0.95-0.94-1.82-1.52-2.65c-1.96-2.82-3.1-5.84-2.48-9.37
		C454.59,133.65,454.32,133.61,454.06,133.58z M519.37,126.15c0.15-0.07,0.3-0.14,0.45-0.21c-0.61-1.68-0.89-3.6-1.89-5.01
		c-3.55-5.01-5.56-10.65-7.28-16.43c-0.44-1.47-1.26-1.89-2.62-2.28c-3.81-1.1-7.64-2.22-11.26-3.79c-2.16-0.94-3.97-1.96-6.39-0.81
		c-0.88,0.42-2.17,0.13-3.25-0.03c-2.35-0.35-4.68-0.98-7.03-1.19c-1.03-0.09-2.38,0.28-3.13,0.96
		c-5.26,4.71-10.43,9.53-15.57,14.38c-0.69,0.65-1.29,1.63-1.48,2.55c-0.81,3.91-1.36,7.88-2.16,11.79
		c-1.4,6.81-0.46,13.07,3.95,18.64c0.74,0.93,1.42,1.94,1.93,3c0.96,1.97,2.54,3,4.54,3.75c2.66,1.01,5.59,1.67,7.31,4.34
		c2.01,3.14,4.83,4.36,8.6,4.87c4.81,0.65,8.93,0.41,13.24-2.27c6.58-4.1,14.21-6.73,17.95-14.34c0.07-0.14,0.29-0.21,0.37-0.35
		c1.04-1.78,2.69-3.48,2.99-5.38C519.25,134.32,519.17,130.21,519.37,126.15z"/>
	<path class="st9" d="M483.72,153.31c2.03-0.28,4.07-0.84,6.09-0.77c2.63,0.09,4.83-0.5,6.79-2.23c0.7-0.61,1.48-1.17,2.3-1.6
		c5.7-2.93,9.39-7.66,11.96-13.36c0.37-0.81,0.63-1.77,0.6-2.65c-0.11-3.15-0.3-6.29-0.6-9.43c-0.09-0.86-0.64-1.7-1.1-2.48
		c-2.19-3.71-4.52-7.33-6.58-11.11c-0.79-1.44-1.63-2-3.26-2.24c-2.99-0.45-5.91-1.38-8.86-2.06c-0.78-0.18-1.77-0.52-2.38-0.22
		c-3.19,1.6-6.29,0.23-9.51-0.26c0.39-0.17,0.76-0.43,1.16-0.48c3.08-0.37,6.16-0.72,9.25-1.04c0.4-0.04,0.83,0.08,1.23,0.19
		c3.92,1.07,7.85,2.08,11.73,3.28c0.86,0.27,1.96,1.08,2.18,1.86c1.29,4.53,3.5,8.39,7.11,11.5c0.7,0.6,1.04,1.89,1.1,2.89
		c0.14,2.62,0.11,5.27,0.02,7.9c-0.26,7.43-3.28,13.27-9.92,16.99c-1.77,1-3.67,1.9-5.18,3.23c-3.96,3.49-8.66,2.91-13.3,2.72
		c-0.28-0.01-0.54-0.44-0.81-0.68L483.72,153.31z"/>
	<path class="st9" d="M483.72,153.31l0.05-0.03c-0.65-0.14-1.62-0.06-1.89-0.45c-2.02-2.98-5.02-4.2-8.33-4.83
		c-2.16-0.41-3.38-1.81-4.84-3.32c-5.65-5.87-5.04-12.74-4.29-20.03c0.53-5.15,2.84-8.87,6.26-12.31c2.37-2.39,4.62-4.9,7.4-7.01
		c-0.3,0.5-0.55,1.04-0.92,1.48c-3.16,3.68-6.35,7.34-9.51,11.02c-0.49,0.57-1.18,1.23-1.22,1.87c-0.33,6.23-2.08,12.5,0.52,18.65
		c0.67,1.6,0.86,3.72,2.03,4.74c1.98,1.74,4.41,3.28,6.92,4.05c2.82,0.86,5.12,2.21,7.06,4.28
		C483.39,151.88,483.48,152.67,483.72,153.31z"/>
	<path class="st9" d="M500.7,129.96c-0.49-0.24-0.63-0.29-0.63-0.31c0.54-3.98-2.4-6.57-3.84-9.77c-0.62-1.37-1.34-1.95-2.78-2.08
		c-3.24-0.29-6.48-0.72-9.71-1.09c0.02-0.22,0.04-0.45,0.06-0.67c3.82,0.26,7.64,0.47,11.45,0.83c0.49,0.05,1.01,0.77,1.34,1.29
		c0.96,1.49,1.63,3.22,2.79,4.52C501.34,124.88,500.93,127.26,500.7,129.96z"/>
	<path class="st9" d="M481.12,137.93c3.56,3.21,7.2,2.5,11.15,0.59c3.65-1.77,8.08-2.48,7.41-8.38c0.29,0.1,0.58,0.21,0.88,0.31
		c0.11,0.78,0.51,1.66,0.28,2.32c-0.84,2.39-1.69,4.77-4.73,5.43c-2.23,0.49-4.38,1.38-6.5,2.25c-3.18,1.31-6.12,0.9-8.45-1.43
		c-0.19-0.19-0.01-0.74-0.01-1.11L481.12,137.93z"/>
	<path class="st9" d="M477.73,143.04c-5-1.83-9.29-8.84-6.6-17.31C469.91,132.82,472.39,138.46,477.73,143.04z"/>
	<path class="st9" d="M485.39,135.63c5.13,2.23,8.35-1.41,9.66-4.62c1.36-3.34,0.08-7.67-3.93-10.01c1.78,0.99,3.93,1.41,4.15,4.05
		c0.17,2.07,1.41,4.35,0.84,6.11C494.76,135.38,489,137.65,485.39,135.63z"/>
	<path class="st9" d="M488.43,124.14c2.37,0,4.15,1.6,4.17,3.72c0.02,2.59-2.06,4.89-4.57,5.04c-1.69,0.1-3.71-2.28-3.76-4.41
		C484.23,126.04,486.04,124.14,488.43,124.14z M488.33,124.92c-1.78-0.01-3.34,1.51-3.4,3.32c-0.06,1.74,1.58,3.79,3.03,3.8
		c2.05,0.02,3.84-1.85,3.92-4.07C491.95,126.14,490.54,124.93,488.33,124.92z"/>
	<path class="st9" d="M481.16,137.9c-0.57-0.02-1.3,0.2-1.68-0.08c-2.96-2.2-4.36-11.59-2.27-14.75c0.16-0.25,0.46-0.4,1.09-0.94
		c-2.88,6.27-1.01,11.24,2.8,15.81C481.12,137.93,481.16,137.9,481.16,137.9z"/>
	<path class="st9" d="M509.01,131.95c-1.84,5.64-4.18,10.89-10.72,12.58C503.87,142,506.44,137,509.01,131.95z"/>
	<path class="st9" d="M503.69,117.28c5.16,2.71,6.12,7.1,4.94,12.32C508.61,124.87,507.89,120.41,503.69,117.28z"/>
	<path class="st9" d="M473.56,129.06c-0.2,5.05,2.29,8.71,6.14,11.84C475.68,140.49,472.47,134.23,473.56,129.06z"/>
	<path class="st9" d="M498.26,140.06c1.73-2.67,3.59-5.55,5.44-8.42C502.31,134.86,502.02,138.83,498.26,140.06z"/>
	<path class="st9" d="M476.31,102.53c-2.02,1.84-4.04,3.67-6.07,5.51c-0.17-0.17-0.32-0.34-0.48-0.5c2.01-1.86,4.02-3.72,6.03-5.58
		C475.96,102.15,476.13,102.34,476.31,102.53z"/>
	<path class="st9" d="M488.33,124.92c2.2,0.01,3.62,1.23,3.55,3.05c-0.08,2.23-1.87,4.09-3.92,4.07c-1.46-0.01-3.09-2.07-3.03-3.8
		C485,126.43,486.55,124.91,488.33,124.92z"/>
	<path class="st9" d="M445.81,132.34c0.9-3.76,1.68-7.56,2.71-11.29c0.86-3.11,2.36-6.08,2.93-9.23c1.04-5.76,4.66-9.41,9.1-12.61
		c5.45-3.93,10.9-7.89,16.25-11.95c1.66-1.26,3.32-1.43,5.21-1.07c3.34,0.63,6.67,1.35,10.04,1.8c1.61,0.22,3.3-0.19,4.96-0.17
		c1.03,0.01,2.3-0.04,3.05,0.5c5.81,4.16,12.26,6.93,19.02,9.06c1.34,0.42,2.1,1.07,2.22,2.64c0.22,2.62,0.95,5.21,1.08,7.82
		c0.24,4.83,3.02,8.42,5.68,11.99c2.19,2.94,2.89,5.72,1.95,9.36c-1.4,5.48-2.16,11.13-3.32,16.68c-0.23,1.11-0.84,2.23-1.55,3.12
		c-3.08,3.84-6.1,7.77-9.49,11.32c-1.46,1.53-3.69,2.48-5.74,3.27c-6.82,2.62-13.71,5.08-20.6,7.5c-1.06,0.37-2.35,0.49-3.44,0.27
		c-4.33-0.86-8.65-1.83-12.94-2.92c-0.95-0.24-2.19-0.92-2.53-1.72c-2.47-5.95-7.29-9.17-12.93-11.45c-2.93-1.19-4.85-3.2-6.02-6.11
		c-0.82-2.05-1.82-4.03-2.85-5.98c-1.78-3.36-3.27-6.75-2.01-10.72C446.34,132.41,446.08,132.38,445.81,132.34z M449.4,128.35
		c-0.06,6.97,0.88,10.66,3.67,15.89c0.87,1.64,1.46,3.45,2.48,4.98c1.25,1.87,2.05,4.11,4.58,4.99c5.3,1.84,9.5,5.16,12.29,10.12
		c0.91,1.6,2.32,2.29,4.15,2.52c2.36,0.3,4.76,0.63,6.99,1.38c2.35,0.79,4.8,1.19,6.91,0.24c3.09-1.4,6.29-2.63,9.41-3.8
		c8.78-3.29,16.1-8.21,21.44-15.97c0.72-1.04,1.71-1.9,2.49-2.9c0.4-0.52,0.85-1.13,0.94-1.74c0.83-6.13,1.61-12.26,2.32-18.4
		c0.07-0.6-0.27-1.33-0.61-1.88c-4.21-7.01-6.8-14.62-8.26-22.62c-0.37-2.02-1.41-2.9-3.22-3.33c-5.65-1.36-10.97-3.44-15.67-6.98
		c-0.81-0.61-2.15-0.61-3.26-0.68c-2.49-0.17-5.02,0-7.47-0.36c-2.59-0.39-5.08-1.4-7.67-1.83c-1.07-0.18-2.54,0.12-3.39,0.76
		c-5.16,3.9-9.97,8.31-15.34,11.88c-5.39,3.58-8.46,8.12-9.5,14.48C451.91,119.93,450.35,124.64,449.4,128.35z"/>
</g>
<g id="Vrstva_4">
</g>
<g id="Vrstva_4_kopie">
	<g>
		<g>
			<path class="st10" d="M130.81,40.43c4.67,6.63,9.17,13.03,13.82,19.64c4.75-6.59,9.4-13.03,14.26-19.77c0,9.73,0,19.08,0,28.55
				c-1.67,0-3.36,0-5.26,0c0-4.14,0-8.32,0-12.5c-0.12-0.03-0.24-0.07-0.36-0.1c-2.86,4.06-5.72,8.12-8.71,12.38
				c-2.84-3.93-5.58-7.71-8.32-11.5c-0.1,0.02-0.19,0.04-0.29,0.06c0,3.88,0,7.76,0,11.71c-1.81,0-3.41,0-5.14,0
				C130.81,59.52,130.81,50.14,130.81,40.43z"/>
			<path class="st10" d="M179.9,54.34c2.64,1.52,4.48,3.29,4.52,6.34c0.05,4.39-2.24,7.27-6.65,7.97c-1.97,0.31-4.01,0.27-6.02,0.32
				c-1.95,0.05-3.9,0.01-5.93,0.01c0-9.26,0-18.37,0-27.88c4.04,0.25,8.01,0.29,11.91,0.81c2.67,0.36,4.7,2,5.25,4.89
				c0.55,2.88-0.19,5.34-2.56,7.21C180.31,54.09,180.18,54.16,179.9,54.34z M171.18,63.96c1.93-0.17,3.82-0.22,5.67-0.55
				c1.33-0.24,2.02-1.27,1.99-2.69c-0.03-1.4-0.85-2.25-2.1-2.45c-1.81-0.28-3.65-0.32-5.55-0.47
				C171.18,59.95,171.18,61.79,171.18,63.96z M171.2,46.58c0,2.15,0,3.98,0,5.92c1.38,0,2.69,0.09,3.99-0.03
				c1.34-0.12,2.27-1.31,2.37-2.76c0.1-1.38-0.63-2.55-2.04-2.8C174.15,46.67,172.73,46.69,171.2,46.58z"/>
			<path class="st10" d="M214.25,41.18c3.88,0.16,7.72,0.06,11.49,0.56c3.68,0.48,6.38,2.69,7.14,6.5
				c0.78,3.93,0.09,7.54-3.27,10.21c-0.22,0.18-0.44,0.36-0.7,0.58c2.08,3.28,4.12,6.49,6.32,9.95c-2.1,0-3.94,0.05-5.78-0.04
				c-0.37-0.02-0.82-0.46-1.07-0.83c-1.39-2.03-2.83-4.03-4.04-6.16c-0.82-1.44-1.83-2.04-3.42-1.78c-0.38,0.06-0.78,0.01-1.37,0.01
				c0,2.94,0,5.8,0,8.73c-1.86,0-3.51,0-5.29,0C214.25,59.8,214.25,50.69,214.25,41.18z M219.61,46.75c0,2.74,0,5.39,0,8.09
				c1.54,0,2.96,0.07,4.37-0.02c2.06-0.12,3.46-1.65,3.56-3.77c0.11-2.37-1.07-4.04-3.25-4.27
				C222.75,46.62,221.19,46.75,219.61,46.75z"/>
			<path class="st10" d="M189.62,68.85c0-9.14,0-18.24,0-27.44c6.19,0,12.3,0,18.53,0c0,1.7,0,3.38,0,5.24c-4.35,0-8.7,0-13.11,0
				c0,1.97,0,3.77,0,5.75c3.86,0,7.71,0,11.64,0c0,1.82,0,3.47,0,5.3c-3.84,0-7.69,0-11.63,0c0,2.02,0,3.87,0,5.9
				c4.5,0,9.04,0,13.66,0c0,1.83,0,3.47,0,5.25C202.4,68.85,196.05,68.85,189.62,68.85z"/>
			<path class="st10" d="M102.53,46.65c-2.28,0-4.28,0-6.35,0c0-1.8,0-3.44,0-5.21c6.09,0,12.14,0,18.28,0c0,1.71,0,3.35,0,5.16
				c-2.11,0-4.2,0-6.47,0c0,7.49,0,14.82,0,22.26c-1.88,0-3.57,0-5.46,0C102.53,61.57,102.53,54.23,102.53,46.65z"/>
			<path class="st10" d="M124.01,68.89c-1.8,0-3.5,0-5.27,0c0-9.18,0-18.28,0-27.47c1.78,0,3.47,0,5.27,0
				C124.01,50.56,124.01,59.65,124.01,68.89z"/>
			<path class="st10" d="M287,55.75c-0.02-7.45,6.01-13.57,13.39-13.59c7.54-0.02,13.67,6.01,13.7,13.47
				c0.03,7.41-6.18,13.64-13.61,13.63C292.98,69.25,287.03,63.28,287,55.75z M300.56,43.87c-6.5-0.02-11.75,5.29-11.73,11.86
				c0.02,6.37,5.29,11.71,11.59,11.74c6.52,0.03,11.8-5.26,11.79-11.81C312.2,49.17,306.98,43.89,300.56,43.87z"/>
			<path class="st10" d="M268.79,42.16c7.41,0.02,13.49,6.1,13.49,13.51c0,7.43-6.21,13.61-13.64,13.58
				c-7.48-0.03-13.45-6.04-13.45-13.56C255.18,48.21,261.28,42.14,268.79,42.16z M268.73,43.87c-6.5-0.01-11.74,5.3-11.69,11.88
				c0.04,6.4,5.3,11.71,11.6,11.72c6.51,0.01,11.83-5.34,11.79-11.83C280.39,49.17,275.14,43.89,268.73,43.87z"/>
			<path class="st10" d="M322.31,67.24c4.94,0,9.63,0,14.42,0c0,0.61,0,1.11,0,1.68c-5.39,0-10.72,0-16.17,0c0-8.83,0-17.63,0-26.5
				c0.59,0,1.1,0,1.74,0C322.31,50.69,322.31,58.87,322.31,67.24z"/>
			<path class="st10" d="M245.69,68.93c-0.73,0-1.21,0-1.85,0c0-8.28,0-16.5,0-24.89c-2.64,0-5.11,0-7.69,0c0-0.62,0-1.07,0-1.62
				c5.72,0,11.39,0,17.16,0c0,0.48,0,0.93,0,1.56c-2.5,0-4.98,0-7.62,0C245.69,52.36,245.69,60.58,245.69,68.93z"/>
		</g>
	</g>
</g>
<g id="Vrstva_1_kopie">
	<g>
		<path class="st11" d="M139.27,80.91h-2.08v7.07h-1v-7.07h-2.08v-0.85h5.16V80.91z"/>
		<path class="st11" d="M144.91,87.97h-1v-7.92h1V87.97z"/>
		<path class="st11" d="M151.28,80.05l2.07,6.46l2.07-6.46h1.28v7.92h-1v-3.08l0.09-3.09l-2.07,6.17h-0.76l-2.06-6.15l0.09,3.07
			v3.08h-1v-7.92H151.28z"/>
		<path class="st11" d="M161.78,87.97v-7.92h2.26c0.72,0,1.26,0.18,1.63,0.53c0.36,0.35,0.55,0.88,0.55,1.58
			c0,0.37-0.09,0.7-0.28,0.98c-0.18,0.28-0.43,0.5-0.75,0.66c0.36,0.11,0.65,0.33,0.86,0.67c0.21,0.34,0.32,0.74,0.32,1.22
			c0,0.71-0.2,1.27-0.58,1.68c-0.39,0.41-0.95,0.61-1.67,0.61H161.78z M162.77,83.43h1.28c0.34,0,0.62-0.12,0.83-0.35
			c0.21-0.23,0.32-0.54,0.32-0.93c0-0.44-0.1-0.75-0.29-0.95s-0.49-0.3-0.88-0.3h-1.26V83.43z M162.77,84.27v2.85h1.36
			c0.38,0,0.68-0.12,0.9-0.37c0.22-0.25,0.33-0.6,0.33-1.05c0-0.95-0.4-1.43-1.21-1.43H162.77z"/>
		<path class="st11" d="M174.98,84.31h-2.8v2.81h3.26v0.85h-4.26v-7.92h4.21v0.85h-3.21v2.55h2.8V84.31z"/>
		<path class="st11" d="M182.51,84.77h-1.39v3.2h-1v-7.92h2.22c0.78,0,1.36,0.2,1.76,0.61c0.4,0.41,0.6,1,0.6,1.78
			c0,0.49-0.11,0.92-0.32,1.28c-0.21,0.36-0.52,0.64-0.92,0.82l1.53,3.37v0.07h-1.07L182.51,84.77z M181.12,83.92h1.21
			c0.42,0,0.75-0.13,1-0.4c0.25-0.27,0.37-0.63,0.37-1.08c0-1.02-0.46-1.53-1.38-1.53h-1.2V83.92z"/>
		<path class="st11" d="M198.99,84.31h-2.8v2.81h3.26v0.85h-4.26v-7.92h4.21v0.85h-3.21v2.55h2.8V84.31z"/>
		<path class="st11" d="M206.59,83.09l1.49-3.04h1.17l-2.06,3.93l2.1,3.99h-1.18l-1.52-3.09l-1.53,3.09h-1.18l2.12-3.99l-2.07-3.93
			h1.16L206.59,83.09z"/>
		<path class="st11" d="M217.93,85.9h-2.68l-0.61,2.07h-1.02l2.55-7.92h0.85l2.56,7.92h-1.02L217.93,85.9z M215.52,85.05h2.16
			l-1.08-3.6L215.52,85.05z"/>
		<path class="st11" d="M225.44,80.05l2.07,6.46l2.07-6.46h1.28v7.92h-1v-3.08l0.09-3.09l-2.07,6.17h-0.76l-2.06-6.15l0.09,3.07
			v3.08h-1v-7.92H225.44z"/>
		<path class="st11" d="M236.95,87.97h-1v-7.92h1V87.97z"/>
		<path class="st11" d="M247.21,87.97h-1l-3.17-6.1v6.1h-1v-7.92h1l3.18,6.13v-6.13h0.99V87.97z"/>
		<path class="st11" d="M256.12,85.9h-2.68l-0.61,2.07h-1.02l2.55-7.92h0.85l2.56,7.92h-1.02L256.12,85.9z M253.7,85.05h2.16
			l-1.08-3.6L253.7,85.05z"/>
		<path class="st11" d="M266.21,80.91h-2.08v7.07h-1v-7.07h-2.08v-0.85h5.16V80.91z"/>
		<path class="st11" d="M271.85,87.97h-1v-7.92h1V87.97z"/>
		<path class="st11" d="M282.1,84.71c0,1.08-0.23,1.91-0.69,2.5c-0.46,0.58-1.12,0.88-1.96,0.88c-0.82,0-1.46-0.28-1.93-0.85
			c-0.47-0.57-0.72-1.37-0.74-2.41v-1.49c0-1.06,0.23-1.89,0.7-2.49s1.12-0.9,1.96-0.9c0.83,0,1.48,0.29,1.95,0.86
			c0.47,0.57,0.71,1.4,0.72,2.46V84.71z M281.1,83.32c0-0.84-0.14-1.46-0.41-1.87c-0.27-0.41-0.69-0.61-1.26-0.61
			c-0.55,0-0.96,0.21-1.24,0.62c-0.28,0.41-0.42,1.02-0.43,1.83v1.42c0,0.81,0.14,1.42,0.42,1.85c0.28,0.42,0.7,0.64,1.26,0.64
			s0.97-0.2,1.24-0.59c0.27-0.39,0.41-0.99,0.42-1.8V83.32z"/>
		<path class="st11" d="M292.16,87.97h-1l-3.17-6.1v6.1h-1v-7.92h1l3.18,6.13v-6.13h0.99V87.97z"/>
		<path class="st11" d="M307.69,80.91h-2.08v7.07h-1v-7.07h-2.08v-0.85h5.16V80.91z"/>
		<path class="st11" d="M317.27,84.71c0,1.08-0.23,1.91-0.69,2.5c-0.46,0.58-1.12,0.88-1.96,0.88c-0.82,0-1.46-0.28-1.93-0.85
			c-0.47-0.57-0.72-1.37-0.74-2.41v-1.49c0-1.06,0.23-1.89,0.7-2.49s1.12-0.9,1.96-0.9c0.83,0,1.48,0.29,1.95,0.86
			c0.47,0.57,0.71,1.4,0.72,2.46V84.71z M316.28,83.32c0-0.84-0.14-1.46-0.41-1.87c-0.27-0.41-0.69-0.61-1.26-0.61
			c-0.55,0-0.96,0.21-1.24,0.62c-0.28,0.41-0.42,1.02-0.43,1.83v1.42c0,0.81,0.14,1.42,0.42,1.85c0.28,0.42,0.7,0.64,1.26,0.64
			s0.97-0.2,1.24-0.59c0.27-0.39,0.41-0.99,0.42-1.8V83.32z"/>
		<path class="st11" d="M327.32,84.71c0,1.08-0.23,1.91-0.69,2.5c-0.46,0.58-1.12,0.88-1.96,0.88c-0.82,0-1.46-0.28-1.93-0.85
			c-0.47-0.57-0.72-1.37-0.74-2.41v-1.49c0-1.06,0.23-1.89,0.7-2.49s1.12-0.9,1.96-0.9c0.83,0,1.48,0.29,1.95,0.86
			c0.47,0.57,0.71,1.4,0.72,2.46V84.71z M326.32,83.32c0-0.84-0.14-1.46-0.41-1.87c-0.27-0.41-0.69-0.61-1.26-0.61
			c-0.55,0-0.96,0.21-1.24,0.62c-0.28,0.41-0.42,1.02-0.43,1.83v1.42c0,0.81,0.14,1.42,0.42,1.85c0.28,0.42,0.7,0.64,1.26,0.64
			s0.97-0.2,1.24-0.59c0.27-0.39,0.41-0.99,0.42-1.8V83.32z"/>
		<path class="st11" d="M333.21,87.12h3.11v0.85h-4.11v-7.92h1V87.12z"/>
	</g>
	<g>
		<path class="st12" d="M103.18,27.76c-3.4-2.84-6.28-5.47-9.38-7.8C86.49,14.49,79.05,9.19,71.73,3.73
			c-1.59-1.19-3.18-0.75-4.74-0.49c-5.12,0.85-10.2,1.87-15.31,2.79C50.97,6.16,50,6.4,49.53,6.06c-3.59-2.55-6.51-0.75-9.2,1.45
			c-4.68,3.83-10.02,6.27-15.7,8.11c-0.78,0.25-1.54,0.54-2.31,0.82c-6.14,2.2-6.11,2.21-7.09,8.55c-0.6,3.89-1.04,7.83-2.06,11.6
			c-0.59,2.2-2.1,4.18-3.35,6.16c-1.7,2.7-3.65,5.25-5.29,7.98C4,51.62,3.77,52.95,3.95,53.98c1.56,8.88,3.23,17.75,4.93,26.61
			c0.19,0.98,0.62,2.02,1.24,2.78c4.46,5.46,8.98,10.87,13.55,16.24c0.64,0.75,1.54,1.42,2.46,1.76
			c10.43,3.86,20.88,7.67,31.35,11.41c1.04,0.37,2.33,0.46,3.41,0.24c6.1-1.28,12.17-2.66,18.23-4.1c0.76-0.18,1.58-0.82,2.03-1.48
			c1.22-1.77,2.45-3.57,3.33-5.52c1.52-3.34,4.14-5.24,7.36-6.67c2.64-1.17,5.12-2.74,7.79-3.83c4.52-1.84,5.52-6.05,7.4-10
			c-0.85-0.23-1.49-0.37-2.09-0.58c-2.23-0.79-3.64,0.06-4.46,2.17c-1.53,3.93-3.82,7.17-8.11,8.42
			c-7.02,2.06-10.74,7.79-14.84,13.14c-0.6,0.79-1.66,1.47-2.63,1.7c-2.81,0.67-5.68,1.08-8.53,1.59c-1.59,0.29-3.28,0.34-4.75,0.92
			c-4.21,1.65-7.57-0.58-11.13-2.08c-1.43-0.6-2.98-0.93-4.35-1.34c-0.48-0.41-0.92-0.97-1.49-1.23c-4.94-2.22-10.04-4.12-14.8-6.67
			c-2.58-1.38-4.75-3.69-6.78-5.88c-3.52-3.8-6.84-7.8-10.13-11.81c-0.75-0.91-1.34-2.16-1.5-3.33C10.43,69.42,9.5,62.37,8.71,55.3
			c-0.15-1.3,0.18-2.81,0.75-4.01c1.96-4.07,4.29-7.96,6.14-12.08c1.14-2.54,1.71-5.35,2.4-8.08c0.73-2.87,1.42-5.76,1.9-8.67
			c0.4-2.47,1.8-3.62,4.08-4.23c3.58-0.96,7.24-1.79,10.61-3.27c3.14-1.38,6.01-3.41,8.85-5.38c1.78-1.23,3.4-1.87,5.54-1.08
			c2.66,0.97,5.3,0.65,8.02-0.2c3.67-1.15,7.47-1.86,11.16-2.94c1.59-0.46,2.66,0.03,3.82,0.95c8.49,6.74,17.04,13.42,25.49,20.21
			C99.08,27.83,100.7,27.99,103.18,27.76z"/>
		<path class="st12" d="M96.18,79.76c-3.58-1.36-4.02-1.4-5.64,1.42c-1.74,3.03-3.89,5.34-7.41,6.08
			c-5.17,1.08-8.33,4.86-11.47,8.61c-1.25,1.49-2.6,2.14-4.56,2.25c-3.85,0.21-7.68,0.78-11.52,1.09c-0.9,0.07-1.95-0.07-2.74-0.48
			c-6.84-3.58-13.65-7.21-20.43-10.9c-0.94-0.51-1.78-1.33-2.44-2.18c-3.39-4.41-6.72-8.86-10.03-13.33
			c-0.37-0.49-0.64-1.16-0.68-1.77c-0.22-3.63-0.34-7.27-0.52-10.9c-0.07-1.43-0.06-2.87-0.31-4.27c-0.7-3.84,0.92-6.96,3.21-9.7
			c4.2-5.01,5.55-11.21,7.37-17.17c0.88-2.89,2.08-4.47,5.23-4.91c5.77-0.8,11.23-2.68,16.09-6.04c0.55-0.38,1.55-0.76,2-0.51
			c3.68,1.97,7.48,1.3,11.06,0.21c5.36-1.63,9.67-1.01,13.25,3.7c1.59,2.1,3.88,3.67,5.8,5.52c1.14,1.1,2.35,1.37,3.94,0.59
			c-4.76-4.09-9.41-8.13-14.14-12.07c-0.59-0.49-1.62-0.69-2.43-0.63c-3.41,0.23-6.81,0.52-10.2,0.95
			c-2.68,0.34-5.28,0.64-7.83-0.67c-0.51-0.26-1.49-0.08-2.03,0.26c-6.58,4.05-13.78,6.46-21.23,8.29
			c-0.78,0.19-1.73,1.13-1.96,1.92c-1.12,3.91-1.85,7.94-3.09,11.81c-0.61,1.9-1.97,3.6-3.13,5.29c-1.14,1.64-2.41,3.2-3.72,4.72
			c-2.44,2.85-2.68,5.89-0.8,9.36c0.21,0.39-0.49,1.17-0.44,1.75c0.5,5.22,1.05,10.44,1.66,15.65c0.08,0.69,0.54,1.37,0.96,1.97
			c3.05,4.39,5.97,8.89,9.28,13.07c1.25,1.57,3.33,2.62,5.22,3.52c6.35,3.02,12.83,5.77,19.17,8.82c2.43,1.17,4.73,1.73,7.44,1.23
			c4.08-0.76,8.23-1.16,12.33-1.84c0.78-0.13,1.64-0.68,2.16-1.29c1.25-1.46,2.48-2.99,3.43-4.66c1.36-2.38,3.57-3.4,5.92-4.32
			c2.07-0.81,4.06-1.91,6.2-2.44C93.49,86.68,94.36,82.91,96.18,79.76z"/>
		<path class="st12" d="M83.89,77.32c-2.03-0.38-3.53-0.24-4.79,1.52c-0.7,0.98-2,1.85-3.18,2.12c-4.22,0.95-7.94,2.56-10.96,5.83
			c-0.81,0.88-2.4,1.22-3.69,1.42c-1.45,0.23-2.98-0.14-4.44,0.04c-3.73,0.48-6.72-0.89-9.61-3.1c-2.94-2.25-6.28-3.99-9.14-6.33
			c-1.99-1.62-3.53-3.83-5.12-5.88c-0.76-0.98-1.01-2.36-1.79-3.3c-3-3.59-2.97-7.7-2.33-11.96c0.08-0.51,0.17-1.04,0.12-1.55
			c-0.38-4.49,1.01-8.29,4.24-11.45c0.41-0.4,0.47-1.15,0.73-1.84c0.3-0.22,1-0.45,1.25-0.93c1.53-2.87,3.06-5.75,4.4-8.71
			c0.76-1.67,1.97-2.24,3.63-2.3c4.26-0.17,8.33-1.03,12.17-2.98c0.66-0.34,1.75-0.45,2.38-0.13c3.82,1.86,7.72,0.57,11.59,0.44
			c0.26-0.01,0.51-0.41,0.77-0.63c-0.35-0.28-0.69-0.77-1.06-0.79c-1.92-0.12-3.86-0.01-5.78-0.21c-2.09-0.22-4.15-0.73-6.23-1.04
			c-0.69-0.1-1.51-0.18-2.11,0.09c-4.9,2.23-9.99,3.7-15.39,3.98c-1.38,0.07-2.11,0.77-2.51,2.02c-0.65,2.04-1.47,4.04-1.98,6.12
			c-0.64,2.58-2.08,4.65-4.12,6.11c-3.72,2.66-4.97,6.13-4.43,10.54c0.22,1.81,0.31,3.71,0.04,5.5c-0.73,4.67,0.99,8.51,3.03,12.59
			c2.61,5.21,6.14,9.05,11.35,11.54c2.27,1.08,4.51,2.34,6.5,3.86c3.35,2.57,7.02,3.29,11.08,2.77c0.37-0.05,0.75-0.11,1.11-0.05
			c4.26,0.76,7.21-1.08,9.84-4.33c1.08-1.34,3.23-1.86,4.95-2.62c0.87-0.38,1.87-0.45,2.8-0.7C81.52,81.84,81.52,81.83,83.89,77.32z
			"/>
		<path class="st12" d="M71.76,64.6c1.55-0.99,2.32-2.81,2.28-4.43c-0.1-4.29,0.3-8.87-3.69-12.04c-0.69-0.54-1.27-1.27-1.77-2
			c-2-2.92-4.4-4.44-8.27-4.35c-2.58,0.06-5.1,0.98-7.4,0.79c-4.09-0.33-5.53,1.57-6.78,4.79c-0.59,1.53-1.78,2.98-3.04,4.08
			c-1.75,1.53-0.95,3.4-1.05,5.08c-0.21,3.82-0.6,7.76,2.17,10.98c0.68,0.79,1.51,1.62,2.45,1.99c4.33,1.72,8.72,3.28,13.09,4.89
			c0.41,0.15,0.99,0.5,1.23,0.35c3.48-2.17,7.94-3.02,9.92-7.21c0.26-0.54,0.13-1.26-0.31-1.91c-1.26,1.54-2.32,3.31-3.83,4.55
			c-1.46,1.2-3.34,1.89-5.09,2.69c-0.53,0.24-1.33,0.26-1.87,0.05c-4.27-1.68-8.64-3.19-12.7-5.3c-1.48-0.77-2.3-2.97-3.22-4.63
			c-0.52-0.94-0.97-2.16-0.84-3.17c0.33-2.57,0.71-5.21,1.65-7.59c0.9-2.29,2.46-4.35,3.86-6.42c0.46-0.68,1.26-1.3,2.04-1.56
			c1.88-0.63,3.82-1.22,5.78-1.46c1.69-0.2,3.45,0.28,5.15,0.13c2.16-0.19,3.95,0.04,5.05,2.18c0.23,0.44,0.71,0.75,1.07,1.13
			c5.27,5.74,5.41,5.84,5.31,13.57c-0.02,1.49-1.07,2.97-1.64,4.45C71.46,64.36,71.61,64.48,71.76,64.6z"/>
		<path class="st12" d="M39.93,38.45c-0.21,0.25-0.56,0.48-0.63,0.77c-0.91,3.94-4.11,6.2-6.55,9.02c-0.56,0.65-1.01,1.62-1.05,2.47
			c-0.19,3.77-0.26,7.55-0.28,11.33c0,0.86,0.23,1.78,0.59,2.56c1.03,2.17,2.24,4.24,3.27,6.41c1.18,2.5,7.34,7.12,10.5,7.29
			c-0.92-0.64-1.79-1.36-2.75-1.92c-3.81-2.21-6.55-5.3-8.25-9.41c-0.91-2.21-2.92-3.95-2.64-6.65c0.35-3.31,0.24-6.73,1.08-9.91
			c0.53-1.98,2.52-3.53,3.73-5.37c1.31-2,2.46-4.09,3.68-6.15C40.4,38.76,40.16,38.61,39.93,38.45z"/>
		<path class="st12" d="M62.51,66.8c-2.7,0.17-5.25,1.11-6.82,0.25c-2.5-1.38-4.45-3.87-6.44-6.05c-0.83-0.91,1.09-9.01,2.1-9.91
			c4.04-3.59,9.35-4.45,13.4-0.51c3.58,3.48,4,8.66,0.55,13.37c0.31,0.19,0.61,0.38,0.92,0.57c0.24-0.47,0.48-0.95,0.72-1.42
			c2.2-4.33,1.24-8.54-0.97-12.43c-0.69-1.21-2.57-1.99-4.06-2.45c-2.14-0.65-4.6-1.51-6.61-1.01c-2.06,0.5-3.85,2.41-5.53,3.96
			c-0.57,0.53-0.46,1.81-0.65,2.75c-0.34,1.74-0.48,3.54-1.05,5.2c-0.51,1.47-0.04,2.37,0.95,3.28c1.91,1.76,3.79,3.55,5.74,5.25
			c0.45,0.39,1.15,0.73,1.72,0.71c1.62-0.06,3.25-0.29,4.86-0.54C61.69,67.74,61.96,67.28,62.51,66.8z"/>
		<path class="st12" d="M75.56,71.65c-1.79,3.87-5.18,5.07-8.89,5.94c-1.19,0.28-2.27,1.27-3.28,2.1c-1.58,1.3-3.14,2.13-5.36,2.08
			c-4.12-0.08-8.24,0.28-11.63-2.9c0.81,1.93,4.46,4.15,6.5,4.23c1.18,0.05,2.38-0.05,3.56,0.06c3.41,0.33,6.17-0.25,8.44-3.39
			c1.05-1.45,3.65-1.91,5.64-2.53c2.29-0.71,4.59-1.26,5.72-3.67c0.22-0.47,0.12-1.1,0.17-1.65C76.14,71.84,75.85,71.75,75.56,71.65
			z"/>
		<path class="st12" d="M49.9,74.98c-7.02-5.19-12.44-10.72-10.56-20C36.21,60.52,40.25,72.09,49.9,74.98z"/>
		<path class="st12" d="M66.15,32.68c-2.2-0.11-4.4-0.16-6.59-0.37c-1.07-0.1-2.1-0.56-3.16-0.76c-0.61-0.11-1.28-0.14-1.87,0
			c-4.01,0.93-7.99,2.05-12.03,2.82c-2.06,0.39-2.15,1.84-2.29,3.59c0.46-0.43,1.16-0.77,1.33-1.29c0.52-1.58,1.63-1.72,3.06-1.95
			c3.25-0.52,6.46-1.36,9.69-2.06c0.7-0.15,1.62-0.61,2.08-0.33C59.52,34.29,62.86,32.71,66.15,32.68z"/>
		<path class="st12" d="M44.86,46.21c1.04-5.32,4.33-7.01,9.19-6.69c1.39,0.09,2.85-0.9,4.17-1.67c-3.68,0.61-7.35,1.2-11.02,1.85
			c-0.31,0.05-0.68,0.37-0.81,0.66c-0.8,1.79-1.54,3.6-2.3,5.41C44.35,45.91,44.6,46.06,44.86,46.21z"/>
		<path class="st12" d="M28.99,79.81c2.81,4.66,7.12,7.94,12.07,9.32C37.28,86.21,33.02,82.92,28.99,79.81z"/>
		<path class="st12" d="M74.04,68.9c-2.59,2.59-4.49,5.5-8.33,5.34C69.78,74.98,74.01,72.41,74.04,68.9z"/>
		<path class="st12" d="M80.46,29c-2.33-2.06-4.66-4.13-6.99-6.19c1.61,2.86,3.55,5.35,6.45,6.78C80.1,29.4,80.28,29.2,80.46,29z"/>
		<path class="st12" d="M39.29,54.63c0.44-1.32,0.69-2.75,1.39-3.93c0.77-1.31,1.95-2.38,3.06-3.69c-3.27,1.16-4.88,3.6-4.99,7.36
			C38.93,54.46,39.11,54.55,39.29,54.63z"/>
		<path class="st12" d="M76.73,55.41c0,3.07,0,6.13,0,9.07C77.99,63.58,78.29,58.42,76.73,55.41z"/>
		<path class="st12" d="M62.75,76.32c-3.4,2.69-7.04,0.43-10.41,0.85C54.35,79.05,61.31,78.68,62.75,76.32z"/>
		<path class="st12" d="M71.65,26.96c0.02,2.55,2.47,5.04,4.22,4.56C74.53,30.06,73.27,28.71,71.65,26.96z"/>
		<path class="st12" d="M79.95,65.09c1.86-1.18,2.16-4.07,0.79-5.83C80.48,61.16,80.23,62.96,79.95,65.09z"/>
		<path class="st12" d="M59.03,63.32c-3.05,0.25-5.99-2.97-6.24-6.56c-0.15-2.14,2.49-4.68,5.03-4.85c3.08-0.2,5.56,2.04,5.77,5.24
			C64.12,59.79,61.39,63.12,59.03,63.32z M53.81,56.5c-0.19,2.87,2.31,5.69,5.08,5.74c1.64,0.03,3.76-2.53,3.78-4.57
			c0.03-2.66-1.64-4.45-4.22-4.51C55.85,53.09,53.94,54.47,53.81,56.5z"/>
		<path class="st13" d="M63.47,57.15c-0.21-3.19-2.68-5.44-5.77-5.23c-2.54,0.17-5.18,2.71-5.03,4.85c0.25,3.59,3.18,6.81,6.24,6.56
			C61.28,63.12,64,59.79,63.47,57.15z"/>
	</g>
	<g>
		<g>
			<g>
				<path class="st14" d="M335.54,30.09c0.01-0.02,0.01-0.04,0.01-0.06c0-0.04-0.02-0.07-0.05-0.1c-0.04-0.03-0.11-0.04-0.2-0.04
					h-0.15v0.28h0.14c0.04,0,0.09,0,0.12-0.01c0.03-0.01,0.06-0.02,0.08-0.03C335.51,30.12,335.53,30.11,335.54,30.09"/>
				<path class="st14" d="M335.34,29.35c-0.49,0-0.88,0.39-0.88,0.88c0,0.49,0.4,0.88,0.88,0.88c0.49,0,0.88-0.4,0.88-0.88
					C336.22,29.75,335.83,29.35,335.34,29.35 M335.71,30.73c-0.02,0-0.03,0-0.04-0.01c-0.01,0-0.02-0.01-0.03-0.02l-0.35-0.36
					c-0.01-0.01-0.02-0.01-0.04-0.01h-0.09v0.4h-0.18v-0.98h0.33c0.14,0,0.24,0.02,0.31,0.07c0.08,0.05,0.12,0.12,0.12,0.21
					c0,0.04-0.01,0.08-0.03,0.12c-0.02,0.03-0.04,0.06-0.08,0.09c-0.03,0.02-0.07,0.04-0.11,0.06c-0.01,0-0.02,0.01-0.04,0.01
					l0.42,0.43H335.71z"/>
				<path class="st14" d="M332.15,22.31c-0.29,0-0.53,0.25-0.53,0.55v7.7c0,0.31,0.24,0.55,0.53,0.55h1.42v-8.81H332.15z"/>
				<path class="st14" d="M328.02,24.92c0.43,0,0.83,0.06,1.19,0.19c0.36,0.12,0.67,0.31,0.93,0.55c0.26,0.24,0.46,0.53,0.61,0.88
					c0.14,0.35,0.22,0.74,0.22,1.18c0,0.14-0.01,0.25-0.02,0.34c-0.01,0.09-0.04,0.15-0.07,0.21s-0.08,0.09-0.13,0.11
					c-0.06,0.02-0.13,0.03-0.22,0.03h-3.77c0.06,0.51,0.23,0.88,0.5,1.11c0.27,0.23,0.62,0.35,1.04,0.35c0.23,0,0.42-0.03,0.59-0.08
					c0.17-0.05,0.31-0.11,0.44-0.17c0.13-0.06,0.25-0.12,0.35-0.17c0.11-0.05,0.22-0.08,0.34-0.08c0.16,0,0.27,0.05,0.35,0.16
					l0.57,0.65c-0.2,0.21-0.42,0.39-0.65,0.53c-0.23,0.14-0.47,0.24-0.72,0.32c-0.25,0.08-0.49,0.13-0.74,0.16
					c-0.25,0.03-0.48,0.05-0.7,0.05c-0.46,0-0.89-0.07-1.29-0.21c-0.4-0.14-0.75-0.35-1.05-0.62c-0.3-0.27-0.54-0.62-0.71-1.02
					c-0.17-0.41-0.26-0.88-0.26-1.43c0-0.41,0.08-0.79,0.22-1.16c0.15-0.36,0.36-0.68,0.64-0.96c0.28-0.27,0.62-0.49,1.02-0.65
					C327.07,25,327.52,24.92,328.02,24.92 M328.06,26.18c-0.38,0-0.67,0.1-0.88,0.3c-0.21,0.2-0.35,0.48-0.42,0.86h2.44
					c0-0.14-0.02-0.29-0.06-0.42c-0.04-0.14-0.1-0.26-0.2-0.37c-0.09-0.11-0.21-0.2-0.36-0.26
					C328.45,26.21,328.27,26.18,328.06,26.18"/>
				<path class="st14" d="M322.63,31.12h-1.78l-2.54-6.1h1.63c0.14,0,0.25,0.03,0.35,0.09c0.09,0.06,0.16,0.14,0.19,0.23l0.91,2.74
					c0.07,0.22,0.14,0.44,0.21,0.65c0.06,0.21,0.12,0.42,0.17,0.64c0.05-0.21,0.1-0.42,0.17-0.64c0.07-0.21,0.14-0.43,0.21-0.65
					l0.95-2.74c0.03-0.09,0.1-0.17,0.19-0.23c0.09-0.06,0.2-0.09,0.33-0.09h1.55L322.63,31.12z"/>
				<path class="st14" d="M315.68,24.92c0.43,0,0.83,0.06,1.19,0.19c0.36,0.12,0.67,0.31,0.93,0.55c0.26,0.24,0.46,0.53,0.61,0.88
					c0.15,0.35,0.22,0.74,0.22,1.18c0,0.14-0.01,0.25-0.02,0.34c-0.01,0.09-0.04,0.15-0.07,0.21c-0.04,0.05-0.08,0.09-0.14,0.11
					c-0.06,0.02-0.13,0.03-0.22,0.03h-3.77c0.06,0.51,0.23,0.88,0.5,1.11c0.27,0.23,0.62,0.35,1.04,0.35c0.23,0,0.42-0.03,0.59-0.08
					c0.16-0.05,0.31-0.11,0.44-0.17c0.13-0.06,0.25-0.12,0.35-0.17c0.11-0.05,0.22-0.08,0.34-0.08c0.16,0,0.27,0.05,0.35,0.16
					l0.57,0.65c-0.2,0.21-0.42,0.39-0.65,0.53c-0.23,0.14-0.47,0.24-0.72,0.32c-0.25,0.08-0.49,0.13-0.74,0.16
					c-0.25,0.03-0.48,0.05-0.7,0.05c-0.46,0-0.89-0.07-1.29-0.21c-0.4-0.14-0.75-0.35-1.05-0.62c-0.3-0.27-0.54-0.62-0.71-1.02
					c-0.17-0.41-0.26-0.88-0.26-1.43c0-0.41,0.07-0.79,0.22-1.16c0.15-0.36,0.36-0.68,0.64-0.96c0.28-0.27,0.62-0.49,1.02-0.65
					C314.73,25,315.18,24.92,315.68,24.92 M315.72,26.18c-0.38,0-0.67,0.1-0.88,0.3c-0.21,0.2-0.35,0.48-0.42,0.86h2.44
					c0-0.14-0.02-0.29-0.06-0.42c-0.04-0.14-0.11-0.26-0.2-0.37c-0.09-0.11-0.21-0.2-0.36-0.26
					C316.11,26.21,315.93,26.18,315.72,26.18"/>
				<path class="st14" d="M310.43,22.31c-0.29,0-0.53,0.25-0.53,0.55c0,0.01,0,2.54,0,2.54c-0.19-0.15-0.4-0.27-0.63-0.36
					c-0.23-0.09-0.52-0.14-0.86-0.14c-0.42,0-0.8,0.08-1.14,0.24c-0.35,0.16-0.64,0.38-0.89,0.67c-0.25,0.29-0.44,0.62-0.57,1.01
					c-0.13,0.39-0.2,0.81-0.2,1.27c0,0.49,0.06,0.93,0.18,1.32c0.12,0.39,0.29,0.71,0.5,0.98c0.21,0.27,0.46,0.47,0.75,0.61
					c0.29,0.14,0.61,0.21,0.95,0.21c0.22,0,0.43-0.02,0.62-0.06c0.19-0.04,0.37-0.1,0.54-0.18c0.17-0.08,0.32-0.17,0.46-0.27
					c0.14-0.11,0.28-0.22,0.41-0.35l0.15,0.46c0.03,0.1,0.09,0.18,0.17,0.23c0.08,0.05,0.18,0.08,0.31,0.08h1.21v-8.81H310.43z
					 M309.9,29.24c-0.08,0.09-0.17,0.18-0.26,0.25c-0.09,0.07-0.18,0.13-0.27,0.18c-0.1,0.05-0.2,0.08-0.32,0.11
					c-0.12,0.03-0.25,0.04-0.39,0.04c-0.16,0-0.3-0.03-0.42-0.09c-0.13-0.06-0.24-0.16-0.33-0.29c-0.09-0.14-0.16-0.31-0.21-0.53
					c-0.05-0.22-0.08-0.49-0.08-0.81c0-0.33,0.03-0.62,0.09-0.85c0.06-0.24,0.15-0.43,0.26-0.57c0.11-0.15,0.24-0.25,0.39-0.32
					c0.15-0.07,0.32-0.1,0.5-0.1c0.19,0,0.37,0.03,0.54,0.09c0.17,0.06,0.33,0.17,0.48,0.32V29.24z"/>
				<path class="st14" d="M305.05,26.7c-0.12-0.39-0.29-0.71-0.5-0.97c-0.21-0.27-0.46-0.47-0.75-0.6
					c-0.29-0.14-0.61-0.21-0.95-0.21c-0.42,0-0.78,0.07-1.09,0.2c-0.31,0.14-0.59,0.32-0.83,0.54v-2.8h0c0-0.31-0.24-0.55-0.54-0.55
					h-1.42v8.81h1.3c0.13,0,0.23-0.02,0.31-0.07c0.08-0.05,0.13-0.13,0.16-0.26l0.07-0.31c0.1,0.11,0.2,0.2,0.31,0.29
					c0.11,0.09,0.23,0.17,0.35,0.23c0.13,0.06,0.27,0.12,0.42,0.15c0.15,0.04,0.33,0.05,0.52,0.05c0.42,0,0.8-0.08,1.14-0.24
					c0.34-0.16,0.64-0.38,0.88-0.67c0.25-0.29,0.44-0.62,0.57-1.01c0.14-0.39,0.21-0.81,0.21-1.27
					C305.23,27.53,305.17,27.09,305.05,26.7 M303.11,28.88c-0.06,0.23-0.15,0.43-0.26,0.57c-0.11,0.15-0.24,0.25-0.39,0.32
					c-0.15,0.07-0.32,0.1-0.5,0.1c-0.19,0-0.37-0.03-0.54-0.09c-0.17-0.06-0.33-0.17-0.48-0.32v-2.59c0.09-0.09,0.17-0.18,0.25-0.25
					c0.08-0.07,0.18-0.13,0.28-0.18c0.1-0.05,0.21-0.08,0.32-0.11c0.12-0.03,0.25-0.04,0.39-0.04c0.16,0,0.3,0.03,0.42,0.09
					c0.13,0.06,0.24,0.16,0.33,0.29c0.09,0.13,0.16,0.31,0.21,0.53c0.05,0.22,0.08,0.49,0.08,0.81
					C303.21,28.35,303.18,28.64,303.11,28.88"/>
				<path class="st14" d="M295.41,24.92c0.43,0,0.83,0.06,1.19,0.19c0.36,0.12,0.67,0.31,0.93,0.55c0.26,0.24,0.46,0.53,0.6,0.88
					c0.15,0.35,0.22,0.74,0.22,1.18c0,0.14-0.01,0.25-0.02,0.34c-0.01,0.09-0.04,0.15-0.07,0.21c-0.03,0.05-0.08,0.09-0.13,0.11
					c-0.06,0.02-0.13,0.03-0.22,0.03h-3.77c0.06,0.51,0.23,0.88,0.5,1.11c0.27,0.23,0.62,0.35,1.04,0.35c0.23,0,0.42-0.03,0.59-0.08
					c0.16-0.05,0.31-0.11,0.44-0.17c0.13-0.06,0.25-0.12,0.35-0.17c0.11-0.05,0.22-0.08,0.34-0.08c0.16,0,0.27,0.05,0.35,0.16
					l0.57,0.65c-0.2,0.21-0.42,0.39-0.65,0.53c-0.23,0.14-0.47,0.24-0.72,0.32c-0.25,0.08-0.49,0.13-0.74,0.16
					c-0.25,0.03-0.48,0.05-0.7,0.05c-0.46,0-0.89-0.07-1.29-0.21c-0.4-0.14-0.75-0.35-1.05-0.62c-0.3-0.27-0.54-0.62-0.71-1.02
					c-0.17-0.41-0.26-0.88-0.26-1.43c0-0.41,0.07-0.79,0.22-1.16c0.15-0.36,0.36-0.68,0.64-0.96c0.28-0.27,0.62-0.49,1.02-0.65
					C294.46,25,294.91,24.92,295.41,24.92 M295.45,26.18c-0.38,0-0.67,0.1-0.88,0.3c-0.21,0.2-0.35,0.48-0.42,0.86h2.44
					c0-0.14-0.02-0.29-0.06-0.42c-0.04-0.14-0.11-0.26-0.2-0.37c-0.09-0.11-0.21-0.2-0.36-0.26
					C295.83,26.21,295.66,26.18,295.45,26.18"/>
				<path class="st14" d="M282.25,25.02h1.57c0.14,0,0.26,0.03,0.36,0.09c0.1,0.06,0.16,0.13,0.18,0.23l0.66,2.74
					c0.05,0.21,0.1,0.41,0.14,0.61c0.04,0.2,0.08,0.39,0.11,0.58c0.06-0.19,0.12-0.39,0.19-0.58c0.07-0.19,0.13-0.4,0.19-0.61
					l0.82-2.74c0.03-0.09,0.09-0.17,0.18-0.23c0.1-0.06,0.21-0.09,0.33-0.09h0.87c0.14,0,0.26,0.03,0.36,0.09
					c0.1,0.06,0.16,0.14,0.19,0.23l0.78,2.74c0.06,0.21,0.12,0.41,0.18,0.61c0.06,0.2,0.12,0.39,0.17,0.59
					c0.03-0.2,0.08-0.39,0.12-0.59c0.05-0.19,0.1-0.4,0.16-0.61l0.69-2.74c0.02-0.09,0.08-0.17,0.18-0.23
					c0.1-0.06,0.21-0.09,0.34-0.09h1.49l-2.03,6.1h-1.59c-0.08,0-0.16-0.02-0.21-0.07c-0.06-0.05-0.1-0.13-0.14-0.24l-0.93-3.04
					c-0.04-0.14-0.08-0.27-0.12-0.41c-0.04-0.13-0.07-0.27-0.1-0.4c-0.03,0.14-0.06,0.27-0.1,0.41c-0.04,0.14-0.08,0.27-0.12,0.41
					l-0.95,3.03c-0.06,0.2-0.2,0.31-0.42,0.31h-1.51L282.25,25.02z"/>
			</g>
		</g>
	</g>
</g>
</svg>
